<svg width="80" height="36" viewBox="0 0 80 36" fill="none" xmlns="http://www.w3.org/2000/svg">
<g clipPath="url(#clip0_224_111)">
<path d="M27.9567 20.4448H28.9133V14.7046L28.0006 14.8353V13.792C28.6529 13.6185 29.1746 13.2704 29.6952 12.8355H30.566V20.4887H31.5225V21.7933H28.0006V20.4458H27.9567V20.4448ZM34.9576 18.053C35.6109 18.6624 35.958 19.1402 35.958 19.7067C35.958 20.2712 35.6109 20.6622 35.1312 20.6622C34.6534 20.6622 34.3921 20.3151 34.3921 19.6189C34.4352 19.0553 34.6307 18.5141 34.9576 18.053ZM35.3925 16.097C34.9147 15.5754 34.6973 15.1834 34.6973 14.7057C34.6973 14.183 35.0015 13.8359 35.2618 13.8359C35.6538 13.8359 35.9151 14.183 35.9151 14.7485C35.9151 15.2273 35.7406 15.6622 35.3925 16.096V16.097ZM34.3053 17.3139C33.4355 18.0101 33.0007 18.7063 33.0007 19.6189C33.0007 20.9664 33.8704 21.8801 35.175 21.8801C36.5225 21.8801 37.4362 21.0103 37.4362 19.4883C37.4362 18.4878 37.0013 17.662 36.1755 16.8361C36.9145 16.1399 37.2626 15.4886 37.2626 14.6179C37.2626 13.4439 36.4797 12.617 35.2618 12.617C34.1318 12.617 33.261 13.5307 33.261 14.8792C33.261 15.7918 33.6101 16.6187 34.3053 17.3139ZM39.6534 17.2271V16.3145C39.6534 14.6179 39.6973 13.8788 40.1761 13.8788C40.6967 13.8788 40.6967 14.6179 40.6967 16.3135V18.1836C40.6967 19.8364 40.6539 20.6193 40.1761 20.6193C39.6973 20.6193 39.6534 19.8364 39.6534 18.1836V17.2271ZM37.9578 17.271C37.9578 20.358 38.654 21.924 40.1761 21.924C41.6104 21.924 42.3934 20.358 42.3934 17.271C42.3934 14.183 41.6543 12.6609 40.1322 12.6609C38.7408 12.6609 37.9578 14.183 37.9578 17.271ZM44.8719 17.2271V16.3145C44.8719 14.6179 44.9158 13.8788 45.3936 13.8788C45.8724 13.8788 45.9152 14.6179 45.9152 16.3135V18.1836C45.9152 19.8364 45.8724 20.6193 45.3946 20.6193C44.9148 20.6193 44.8719 19.8364 44.8719 18.1836V17.2271ZM43.1763 17.271C43.1763 20.358 43.9154 21.924 45.4375 21.924C46.8718 21.924 47.6547 20.358 47.6547 17.271C47.6547 14.183 46.9156 12.6609 45.3936 12.6609C43.9583 12.6609 43.1763 14.183 43.1763 17.271ZM32.6965 17.3139C32.6965 17.7059 32.3494 18.053 31.9574 18.053C31.7631 18.0473 31.5784 17.9676 31.441 17.8302C31.3036 17.6928 31.2239 17.5081 31.2183 17.3139C31.2183 16.9229 31.5654 16.5748 31.9574 16.5748C32.3923 16.5748 32.6965 16.9219 32.6965 17.3139ZM22.043 13.0529C21.2601 14.966 20.0422 16.6626 17.9985 17.4446C17.4779 17.5752 16.9113 17.6181 16.3897 17.4446C15.4331 14.4004 16.6071 10.9653 18.5201 8.48674C19.8676 6.5737 21.9991 5.31195 24.3471 4.35645C22.2166 6.79113 23.3467 10.2262 22.043 13.0529Z" fill="#E9E9E9"/>
<path d="M20.2174 5.31204C16.9997 7.87842 14.0863 12.4007 15.2602 16.7484C13.3462 16.2707 12.1293 14.3576 11.6945 12.4436C11.3464 10.4866 11.7812 8.35617 13.2594 6.96477C14.956 5.26917 16.8691 3.22546 16.6516 0.616211C18.5647 1.3114 19.6519 3.399 20.2174 5.31204ZM19.0863 25.4459H17.9124V23.4451H19.0863V21.6627C19.0863 19.619 20 18.9228 21.521 18.9228C21.9559 18.9228 22.3479 18.9667 22.7828 19.0096V21.0972H22.3479C21.6945 21.0972 21.4781 21.3585 21.4781 22.0108V23.489H22.8256V25.4898H21.4781V34.9254H19.1731V25.4459H19.0863ZM23.6525 19.227H25.9576V34.9264H23.6525V19.226V19.227ZM30.8269 23.1409C33.6097 23.097 34.3927 25.1846 34.3927 29.1853C34.3927 33.0991 33.479 35.2296 30.8269 35.2296C28.0441 35.2735 27.2612 33.1859 27.2612 29.1863C27.2612 25.2714 28.1748 23.1409 30.8269 23.1409ZM30.8269 33.2298C31.7834 33.2298 32.0887 32.0558 32.0887 29.1853C32.0887 26.3157 31.7834 25.1407 30.8269 25.1407C29.6969 25.1407 29.5662 26.8373 29.5662 29.1853C29.6091 31.5332 29.6969 33.2298 30.8269 33.2298ZM34.654 23.4451H36.9591L38.0024 31.5771H38.0452L39.1763 23.4451H41.6978L42.8717 31.5771H42.9156L44.0028 23.4451H46.2211L44.2631 34.8815H41.6539L40.4799 26.7495H40.436L39.306 34.8815H36.6099L34.653 23.4451H34.654ZM48.6558 29.6201V30.5338C48.6558 31.8813 48.96 33.1859 49.7858 33.1859C50.5688 33.1859 50.873 32.4468 51.0037 31.0544H53.0913C53.0045 33.7075 52.0041 35.1857 49.8297 35.1857C46.4814 35.1857 46.3507 31.9252 46.3507 29.0546C46.3507 25.9676 46.8295 23.1409 49.9604 23.1409C52.6554 23.1409 53.2648 25.4459 53.2648 28.9678V29.6201H48.6558ZM51.0476 27.8806C51.0037 26.1411 50.8302 25.1407 49.8736 25.1407C48.96 25.1407 48.6997 26.3586 48.6997 27.4019V27.8367H51.0476V27.8806ZM54.1346 23.4451H56.3529V24.9672H56.3957C56.8745 23.88 57.5268 23.1399 58.4833 23.1399C58.614 23.1399 58.7875 23.1848 58.9182 23.1848V26.0105C58.7008 26.0105 58.4394 25.9676 58.1791 25.9676C57.3523 25.9676 56.4835 26.4882 56.4835 28.0542V34.9244H54.1785V23.4461H54.1346V23.4451ZM61.3968 31.1861V31.5771C61.3968 32.5775 61.8317 33.2298 62.6147 33.2298C63.3098 33.2298 63.7886 32.7949 63.7886 31.8823C63.7886 31.1422 63.3976 30.7941 62.9617 30.5767L61.3539 29.8376C60.0922 29.272 59.4399 28.2716 59.4399 26.6628C59.4399 24.7497 60.3964 23.2277 62.7453 23.2277C64.8319 23.2277 65.8323 24.4016 65.8323 26.4892V26.968H63.7447C63.7447 25.8369 63.4844 25.2285 62.7014 25.2285C62.093 25.2285 61.6142 25.6634 61.6142 26.4464C61.6142 27.0109 61.8317 27.4468 62.6147 27.7939L64.0061 28.4023C65.4842 29.0117 66.0069 29.9682 66.0069 31.6638C66.0069 34.0556 64.6145 35.2735 62.6585 35.2735C60.0493 35.2735 59.3531 33.8382 59.3531 31.621V31.229H61.3968V31.1861ZM66.3101 34.2731C66.3101 34.0557 66.3968 33.8811 66.5275 33.7075C66.6692 33.5741 66.8546 33.4968 67.0492 33.4901C67.2666 33.4901 67.4401 33.5769 67.6147 33.7075C67.7561 33.8618 67.8338 34.0639 67.8321 34.2731C67.8328 34.37 67.8139 34.4661 67.7766 34.5556C67.7392 34.6451 67.6841 34.7261 67.6147 34.7937C67.5408 34.8674 67.4523 34.9249 67.3549 34.9625C67.2576 35.0001 67.1534 35.017 67.0492 35.0122C66.952 35.0129 66.8558 34.9941 66.7661 34.9567C66.6765 34.9193 66.5953 34.8643 66.5275 34.7947C66.354 34.6641 66.3101 34.4905 66.3101 34.2731ZM69.7023 34.9683C68.8326 34.9683 68.3977 34.2731 68.3977 32.9246C68.3977 31.4464 68.9183 30.6634 69.7023 30.6634C70.4414 30.6634 70.8324 31.1851 70.8324 32.1416V32.2723H70.0055V32.0987C70.0055 31.621 69.9197 31.4025 69.7452 31.4025C69.4849 31.4025 69.4849 31.7945 69.4849 32.5336C69.4849 33.6208 69.5277 34.1424 69.7891 34.1424C70.0065 34.1424 70.1362 33.8821 70.1362 33.3155V33.2727L70.9191 33.3166C70.9191 34.4038 70.4414 34.9683 69.7023 34.9683ZM72.6586 31.4454C72.9639 31.4454 73.0506 31.8813 73.0506 32.8378C73.0506 33.7504 72.9639 34.2292 72.6586 34.2292C72.3983 34.2292 72.3115 33.7943 72.3115 32.8378C72.3115 31.8813 72.3983 31.4464 72.6586 31.4464V31.4454ZM71.3111 32.8378C71.3111 34.2731 71.7889 35.0122 72.7025 35.0122C73.5723 35.0122 74.0939 34.2731 74.0939 32.8378C74.0939 31.4025 73.6152 30.6634 72.7025 30.6634C71.746 30.6634 71.3111 31.4025 71.3111 32.8378ZM74.5717 30.7512H75.5292V31.0983C75.7895 30.7941 76.0498 30.6205 76.3122 30.6205C76.6164 30.6205 76.8328 30.7941 76.9635 31.0983C77.2248 30.7941 77.4862 30.6205 77.7904 30.6205C78.2252 30.6205 78.4427 30.8809 78.4427 31.4025V34.7947H77.4862V31.6638C77.4862 31.4903 77.3984 31.4025 77.2687 31.4025C77.1381 31.4025 77.0513 31.4903 76.9635 31.6199V34.7947H76.007V31.6638C76.007 31.4903 75.9202 31.4025 75.7895 31.4025C75.6599 31.4025 75.5721 31.4903 75.4853 31.6199V34.7947H74.5288V30.7502H74.5727L74.5717 30.7512ZM15.4338 17.705C15.3031 17.6621 15.1724 17.7489 15.1296 17.8795C14.0853 20.0539 13.1287 22.3589 12.5203 24.7069C11.8193 22.3593 10.8871 20.087 9.73753 17.9234C7.47638 13.7053 5.08355 9.53115 1.43203 6.878C1.30136 6.79225 1.1268 6.79225 1.04003 6.9219C0.993906 6.99531 0.973217 7.08186 0.98115 7.1682C0.989082 7.25454 1.0252 7.33587 1.08392 7.39965C4.34549 10.4438 5.99719 15.0528 8.12767 19.0974C9.8243 23.7503 11.4331 28.6636 10.9115 33.7953C10.9983 34.7519 11.7384 35.4042 12.5203 35.3164C12.8674 35.2735 13.1287 35.1 13.3472 34.8386C13.5636 34.5773 13.7382 34.2302 13.781 33.8382C13.4365 32.1362 13.3052 30.398 13.3901 28.6636C13.4327 27.122 13.6516 25.5903 14.0424 24.0984C14.564 22.0976 15.3031 20.0968 15.5634 18.0102C15.6073 17.8795 15.5634 17.7489 15.4338 17.706V17.705ZM79.2685 31.0554C79.2685 31.2718 79.095 31.4025 78.9214 31.4025C78.8756 31.4032 78.8301 31.3947 78.7877 31.3775C78.7452 31.3603 78.7066 31.3348 78.6741 31.3024C78.6417 31.2701 78.6161 31.2316 78.5987 31.1891C78.5814 31.1467 78.5728 31.1012 78.5733 31.0554C78.5733 30.8819 78.7469 30.7073 78.9204 30.7073C79.095 30.7073 79.2685 30.838 79.2685 31.0544V31.0554ZM78.6601 31.0554C78.6601 31.229 78.7908 31.3157 78.9204 31.3157C78.9881 31.3112 79.0518 31.2824 79.0998 31.2345C79.1479 31.1867 79.177 31.1231 79.1818 31.0554C79.1818 30.8819 79.0511 30.7941 78.9214 30.7941C78.7479 30.7502 78.6601 30.8809 78.6601 31.0554ZM78.8775 31.229H78.7908V30.8819H78.9204C79.0082 30.8819 79.0082 30.8819 79.0511 30.9248C79.0511 30.9248 79.095 30.9676 79.095 31.0115C79.095 31.0554 79.0511 31.0983 79.0082 31.0983C79.0511 31.0983 79.0511 31.1422 79.0511 31.1851C79.0511 31.229 79.0511 31.2729 79.095 31.2729H79.0082C79.0082 31.2729 79.0082 31.229 78.9643 31.1851C78.9643 31.1422 78.9204 31.1422 78.8775 31.1422H78.8337V31.229H78.8775ZM78.8775 31.0115C78.9643 31.0115 79.0082 31.0115 79.0082 30.9676C79.0082 30.9248 78.9643 30.9248 78.9204 30.9248H78.8775V31.0115Z" fill="#E9E9E9"/>
</g>
<defs>
<clipPath id="clip0_224_111">
<rect width="78.6042" height="34.7083" fill="white" transform="translate(0.979492 0.616211)"/>
</clipPath>
</defs>
</svg>
