<svg width="87" height="21" viewBox="0 0 87 21" fill="none" xmlns="http://www.w3.org/2000/svg">
<path d="M20.8369 19.4603H16.1116L14.6652 16.036H6.78966L5.47199 19.4603H0.82373L7.92526 2.16588H13.0122L20.8369 19.4603ZM10.5335 6.29864L7.95067 13.0175H13.3738L10.5335 6.29864ZM38.0047 2.16588H41.8265V19.4603H37.4357V8.65773L32.6841 14.0835H32.0126L27.2618 8.65773V19.4595H22.871V2.16671H26.6928L32.3479 8.58206L38.0047 2.16671V2.16588ZM52.9505 2.16588C59.3805 2.16588 62.6857 6.09575 62.6857 10.838C62.6857 15.8082 59.4846 19.4603 52.4602 19.4603H45.1774V2.16588H52.9513H52.9505ZM49.5674 16.2905H52.4339C56.8493 16.2905 58.167 13.3485 58.167 10.8123C58.167 7.84531 56.5394 5.33489 52.3823 5.33489H49.5674V16.2905ZM71.4207 6.26621L65.885 0.82959H86.0379V20.6203L80.5022 15.1837V6.26621H71.4207ZM71.414 7.35637L65.7148 12.9526V20.7858H73.6919L79.3911 15.1895H71.414V7.3572V7.35637Z" fill="#E9E9E9"/>
</svg>
