<svg width="87" height="18" viewBox="0 0 87 18" fill="none" xmlns="http://www.w3.org/2000/svg">
<g clip-path="url(#clip0_224_94)">
<path d="M8.85637 13.2002C11.4508 13.2002 13.554 11.0843 13.554 8.47496C13.554 5.86498 11.4508 3.74975 8.85637 3.74975C6.26131 3.74975 4.15869 5.86498 4.15869 8.47496C4.15869 11.0843 6.26131 13.2002 8.85637 13.2002ZM25.7531 2.43917C23.7399 2.43917 20.6602 1.4865 20.6602 1.4865C20.6602 1.4865 19.9895 3.23328 19.9895 5.61562C19.9895 7.99862 21.9632 14.2719 25.9507 15.8608C25.9507 15.8608 31.6359 12.2468 31.6359 5.9334C31.6359 2.16153 31.0832 1.48584 31.0832 1.48584C31.0832 1.48584 27.7669 2.43983 25.7531 2.43983V2.43917Z" fill="#E9E9E9"/>
<path d="M37.48 7.32296V0.493709H40.0459C41.2705 0.413442 42.4939 0.929912 42.4939 2.27997C42.4939 3.03461 41.9807 3.55042 41.3094 3.78859C42.1777 3.98728 42.8101 4.58336 42.8101 5.57551C42.8101 6.92557 41.1124 7.44204 40.0861 7.36243H37.48V7.32296ZM40.0861 3.2333C40.7172 3.2333 41.0334 2.99448 41.0334 2.43853C41.0334 1.88259 40.6776 1.64442 40.0861 1.64442H38.9411V3.27278H40.0861V3.2333ZM40.0861 6.17159C40.7567 6.17159 41.231 6.05251 41.231 5.25839C41.231 4.46362 40.7567 4.34454 40.0861 4.34454H38.9411V6.17159H40.0861ZM45.1388 0.493709V7.32296H43.7185V0.493709H45.1401H45.1388ZM49.4425 6.72753C49.1263 7.1644 48.6922 7.44204 47.9814 7.44204C47.5084 7.44204 46.5999 7.08479 46.4418 6.4091C46.3628 6.13146 46.3628 5.81368 46.3628 5.65512V2.55827H47.7844V5.41695C47.7844 5.93342 47.9425 6.52884 48.6138 6.52884C49.0479 6.52884 49.4425 6.13146 49.4425 5.41695V2.55827H50.8635V6.44923C50.8635 6.72753 50.903 7.00518 50.903 7.28348H49.4821L49.4425 6.72753ZM53.351 5.33734C53.351 5.9729 53.43 6.52818 54.1804 6.52818C54.6534 6.52818 54.9301 6.33081 55.0486 5.89329H56.3121C56.1936 7.08413 55.2851 7.44204 54.1804 7.44204C52.5611 7.44204 51.8898 6.52884 51.8898 4.94061C51.8898 3.51095 52.7192 2.39906 54.1797 2.39906C55.048 2.39906 55.7983 2.71683 56.1936 3.55042C56.3121 3.82872 56.3905 4.10637 56.4301 4.38467C56.4696 4.66231 56.4696 4.98009 56.4696 5.29787H53.351V5.33734ZM55.0091 4.38467C55.0091 3.8682 54.851 3.3912 54.1797 3.3912C53.548 3.3912 53.3905 3.8682 53.3503 4.38467H55.0091ZM61.247 2.67736C61.247 1.96219 60.8128 1.36677 59.9439 1.36677C58.9176 1.36677 58.6415 2.91553 58.6415 3.8682C58.6415 4.82153 58.9176 6.36962 59.9439 6.36962C60.8122 6.36962 61.2463 5.7742 61.2463 5.0597H62.7865C62.7075 6.76701 61.4841 7.40191 59.9439 7.40191C57.9703 7.40191 57.1014 5.85381 57.1014 3.82872C57.1014 1.84311 57.9696 0.254883 59.9439 0.254883C61.523 0.254883 62.747 0.890437 62.7865 2.59709H61.247V2.67736ZM64.8392 2.55827L64.8788 3.43134C65.1943 2.67736 65.7865 2.47866 66.4973 2.51814V3.78859H65.8656C65.6291 3.78859 65.3129 3.94781 65.195 4.1465C65.0369 4.42414 64.9973 4.66231 64.9973 4.98009V7.3223H63.5757V3.5116C63.5757 3.31291 63.5368 2.91618 63.5368 2.55893H64.8392V2.55827ZM69.5771 7.48151C68.0369 7.48151 67.0896 6.44923 67.0896 4.94061C67.0896 3.43134 67.998 2.39906 69.5771 2.39906C71.1166 2.39906 72.0639 3.432 72.0639 4.94061C72.0639 6.44923 71.1166 7.48151 69.5771 7.48151ZM69.5771 6.52884C70.4453 6.52884 70.6034 5.69459 70.6034 4.94061C70.6034 4.18598 70.4453 3.35239 69.5771 3.35239C68.7082 3.35239 68.5507 4.18598 68.5507 4.94061C68.5896 5.69459 68.7082 6.52884 69.5771 6.52884ZM75.4592 3.82872C75.4592 3.51095 75.1437 3.35239 74.8275 3.35239C74.4328 3.35239 74.2748 3.47081 74.2748 3.78859C74.2748 4.54323 76.9988 4.10637 76.9988 5.89395C76.9988 6.92557 75.7359 7.44204 74.867 7.44204C73.7616 7.44204 72.8143 7.00518 72.7747 5.93342H74.0778C74.1173 6.29067 74.4328 6.52884 74.867 6.52884C75.2616 6.52884 75.5383 6.36962 75.5383 6.01237C75.5383 5.61564 74.867 5.45643 74.591 5.41695C73.6825 5.21826 72.8538 4.98009 72.8538 3.90833C72.8538 2.91487 74.0382 2.47866 74.867 2.47866C75.8538 2.47866 76.7227 2.83592 76.7622 3.90833H75.4592V3.82872ZM80.1575 3.82872C80.1575 3.51095 79.8413 3.35239 79.5258 3.35239C79.1312 3.35239 78.9731 3.47081 78.9731 3.78859C78.9731 4.54323 81.6971 4.10637 81.6971 5.89395C81.6971 6.92557 80.4336 7.44204 79.5653 7.44204C78.4599 7.44204 77.5119 7.00518 77.4731 5.93342H78.7754C78.815 6.29067 79.1312 6.52884 79.5653 6.52884C79.9599 6.52884 80.2366 6.36962 80.2366 6.01237C80.2366 5.61564 79.5653 5.45643 79.2886 5.41695C78.3808 5.21826 77.5515 4.98009 77.5515 3.90833C77.5515 2.91487 78.7359 2.47866 79.5653 2.47866C80.5521 2.47866 81.4204 2.83592 81.4599 3.90833H80.1575V3.82872ZM37.48 16.6148V9.7849H40.0459C41.2705 9.70595 42.4939 10.2218 42.4939 11.5718C42.4939 12.3258 41.9807 12.8423 41.3094 13.0804C42.1777 13.2791 42.8101 13.8746 42.8101 14.8674C42.8101 16.2174 41.1124 16.7339 40.0861 16.6543H37.48V16.6148ZM40.0861 12.5245C40.7172 12.5245 41.0334 12.2863 41.0334 11.7304C41.0334 11.1744 40.6776 10.9363 40.0861 10.9363H38.9411V12.5646L40.0861 12.5252V12.5245ZM40.0861 15.4628C40.7567 15.4628 41.231 15.3444 41.231 14.5496C41.231 13.7555 40.7567 13.6364 40.0861 13.6364H38.9411V15.4628H40.0861ZM45.1388 9.7849V16.6142H43.7185V9.7849H45.1401H45.1388ZM49.4425 16.0187C49.1263 16.4556 48.6922 16.7339 47.9814 16.7339C47.5084 16.7339 46.5999 16.376 46.4418 15.6615C46.3628 15.3838 46.3628 15.0661 46.3628 14.9068V11.81H47.7844V14.7088C47.7844 15.2246 47.9425 15.8207 48.6138 15.8207C49.0479 15.8207 49.4425 15.4233 49.4425 14.7088V11.8495H50.8635V15.7411C50.8635 16.0187 50.903 16.297 50.903 16.5747H49.4821L49.4425 16.0187ZM53.351 14.6292C53.351 15.2647 53.43 15.82 54.1804 15.82C54.6534 15.82 54.9301 15.622 55.0486 15.1851H56.3121C56.1936 16.376 55.2851 16.7339 54.1804 16.7339C52.5611 16.7339 51.8898 15.8207 51.8898 14.2318C51.8898 12.8028 52.7192 11.6909 54.1797 11.6909C55.048 11.6909 55.7983 12.0087 56.1936 12.8423C56.3121 13.1199 56.3905 13.3982 56.4301 13.6759C56.4696 13.9542 56.4696 14.2719 56.4696 14.5897L53.351 14.6292ZM55.0091 13.6765C55.0091 13.1601 54.851 12.6831 54.1797 12.6831C53.548 12.6831 53.3905 13.1601 53.3503 13.6765H55.0091ZM61.0493 11.7304C61.0098 11.0554 60.6152 10.6981 59.9044 10.6981C59.3517 10.6981 58.8385 10.9757 58.8385 11.5718C58.8385 12.3258 59.5098 12.4054 60.102 12.5245C61.1284 12.8028 62.6679 13.0804 62.6679 14.4706C62.6679 16.1779 61.2074 16.7734 59.7463 16.7734C58.2068 16.7734 57.1014 16.1779 57.1409 14.4312H58.6409C58.602 15.1851 59.0361 15.701 59.7858 15.701C60.3781 15.701 61.1284 15.5029 61.1284 14.7878C61.1284 13.9936 60.1416 13.9147 59.5889 13.7555C58.6409 13.5173 57.3385 13.0804 57.3385 11.8495C57.3385 10.3007 58.7595 9.58621 60.1804 9.58621C61.4835 9.58621 62.5098 10.3007 62.5098 11.6909L61.0493 11.7304ZM63.6548 16.6148V9.7849H65.0764V12.4455C65.3524 12.0087 65.8261 11.7304 66.5369 11.7304C67.0105 11.7304 67.919 12.0876 68.0764 12.7633C68.1555 13.041 68.1555 13.3587 68.1555 13.5173V16.6148H66.774V13.7555C66.774 13.2397 66.6159 12.6831 65.9446 12.6831C65.5105 12.6831 65.1153 13.0804 65.1153 13.7555V16.6148H63.6548ZM70.8795 9.7849V11.0152H69.3795V9.7849H70.8795ZM70.8004 11.8495V16.6148H69.3795V11.8495H70.8004ZM73.2879 14.6292C73.2879 15.2647 73.367 15.82 74.1173 15.82C74.591 15.82 74.867 15.622 74.9856 15.1851H76.2491C76.1305 16.376 75.2227 16.7339 74.1173 16.7339C72.4981 16.7339 71.8274 15.8207 71.8274 14.2318C71.8274 12.8028 72.6562 11.6909 74.1173 11.6909C74.9856 11.6909 75.7359 12.0087 76.1305 12.8423C76.2491 13.1199 76.3281 13.3982 76.3676 13.6759C76.4065 13.9542 76.4065 14.2719 76.4065 14.5897L73.2879 14.6292ZM74.9065 13.6765C74.9065 13.1601 74.7484 12.6831 74.0778 12.6831C73.446 12.6831 73.2879 13.1601 73.2484 13.6765H74.9065ZM78.6569 9.7849V16.6142H77.2359V9.7849H78.6569ZM83.1576 9.7849H84.5792V15.701C84.5792 16.0187 84.6187 16.3365 84.6187 16.6543H83.1971C83.1971 16.4161 83.1576 16.2174 83.1576 15.9793C82.842 16.5352 82.3288 16.8128 81.6971 16.8128C80.315 16.8128 79.6444 15.5029 79.6444 14.2719C79.6444 13.0015 80.394 11.7304 81.8552 11.7304C82.3288 11.7304 82.842 12.0087 83.118 12.4054L83.1576 9.7849ZM82.1312 15.8207C82.8815 15.8207 83.1576 14.9068 83.1576 14.2318C83.1576 13.5969 82.9211 12.6436 82.1312 12.6436C81.2234 12.6436 81.1048 13.4778 81.1048 14.2318C81.1048 14.947 81.2234 15.8207 82.1312 15.8207ZM82.3684 7.32296C82.254 7.32262 82.1443 7.27661 82.0631 7.19486C81.9819 7.11312 81.9356 7.00221 81.9342 6.88609C81.9342 6.64793 82.1312 6.44923 82.3684 6.44923C82.6049 6.44923 82.8025 6.64793 82.8025 6.88609C82.8025 7.12426 82.6444 7.32296 82.3684 7.32296ZM82.3684 6.33015C82.2335 6.33183 82.1047 6.38663 82.0089 6.483C81.9131 6.57937 81.858 6.70975 81.8552 6.84662C81.8552 7.12426 82.0917 7.36243 82.3684 7.36243C82.503 7.3606 82.6317 7.30582 82.7274 7.20963C82.8231 7.11344 82.8784 6.98331 82.8815 6.84662C82.8785 6.70981 82.8234 6.57952 82.7276 6.48319C82.6319 6.38685 82.5031 6.33199 82.3684 6.33015Z" fill="#E9E9E9"/>
<path d="M82.3661 6.84617H82.2475V6.64748H82.4056C82.4847 6.64748 82.5631 6.64748 82.5631 6.72643C82.5631 6.84617 82.4451 6.84617 82.3661 6.84617ZM82.6421 6.72709C82.6421 6.608 82.6026 6.56787 82.4451 6.56787H82.1685V7.16395H82.2475V6.88565H82.3661L82.5631 7.16395H82.6421L82.4847 6.88565C82.5631 6.88565 82.6421 6.84617 82.6421 6.72709ZM85.4056 16.5742C85.2914 16.5737 85.182 16.5278 85.1008 16.4462C85.0196 16.3646 84.9732 16.254 84.9715 16.138C84.9715 15.8992 85.1691 15.7012 85.4056 15.7012C85.6428 15.7012 85.8404 15.8992 85.8404 16.138C85.8387 16.2541 85.7922 16.3648 85.7109 16.4464C85.6296 16.528 85.52 16.5739 85.4056 16.5742ZM85.4056 15.5821C85.271 15.5839 85.1423 15.6387 85.0466 15.7349C84.9509 15.8311 84.8956 15.9612 84.8925 16.0979C84.8925 16.3762 85.1296 16.6144 85.4056 16.6144C85.5404 16.6127 85.6693 16.5579 85.7651 16.4615C85.8609 16.3651 85.916 16.2348 85.9188 16.0979C85.9158 15.9611 85.8606 15.8309 85.7649 15.7347C85.6691 15.6385 85.5403 15.5838 85.4056 15.5821Z" fill="#E9E9E9"/>
<path d="M85.3665 16.0983H85.248V15.8997H85.406C85.485 15.8997 85.5633 15.8997 85.5633 15.9792C85.5633 16.0983 85.485 16.0983 85.3665 16.0983ZM85.6818 15.9799C85.6818 15.8602 85.6423 15.8208 85.485 15.8208H85.2085V16.4158H85.2875V16.1384H85.406L85.5633 16.4158H85.6423L85.485 16.1384C85.6028 16.1384 85.6818 16.0989 85.6818 15.9792V15.9799Z" fill="#E9E9E9"/>
<path d="M8.89738 9.70528C8.85785 9.70528 8.85785 9.70528 8.81833 9.74476L7.31766 12.0482C7.80536 12.2563 8.32883 12.3643 8.85785 12.3659C9.41056 12.3659 9.92374 12.2468 10.3974 12.0482L8.89738 9.74542C8.93625 9.70594 8.89738 9.70594 8.89738 9.70594V9.70528ZM7.43624 7.79928L5.18589 7.60059C5.10536 7.89824 5.06568 8.20577 5.06796 8.51444C5.06796 9.46712 5.42304 10.3408 5.9751 11.0159L7.55481 7.99797C7.63387 7.91902 7.59434 7.83941 7.43624 7.79928Z" fill="#E9E9E9"/>
<path d="M12.4491 4.90208V0.415039H5.30345V4.90208H0.842285V12.0892H5.30345V16.5763H12.4491V12.0892H16.9103V4.90208H12.4491ZM8.89636 4.06783C10.6724 4.06783 12.2126 5.10077 12.8832 6.64887H9.72575C9.29162 6.64887 9.09399 6.37122 9.05446 6.17253C9.05446 5.93436 9.09399 5.85475 9.29162 5.57711C9.35176 5.49293 9.38833 5.39378 9.39743 5.29019C9.40653 5.1866 9.38782 5.08245 9.3433 4.98879C9.29877 4.89513 9.23009 4.81546 9.14455 4.75826C9.05901 4.70106 8.95981 4.66845 8.85749 4.66391C8.34366 4.66391 8.1862 5.25933 8.42336 5.57711C8.62033 5.85475 8.65986 5.93436 8.65986 6.17253C8.65986 6.37122 8.46223 6.64887 7.98858 6.64887H4.8298C5.57883 5.14025 7.11967 4.06783 8.89636 4.06783ZM4.47407 8.5154C4.47407 7.95945 4.59265 7.44298 4.75075 6.96664L7.7119 7.24495C8.26461 7.3239 8.34301 7.87984 8.18491 8.19762L6.17171 12.0491C5.14535 11.2155 4.47407 9.94441 4.47407 8.5154ZM11.3042 12.2478C10.5934 12.7241 9.76462 12.9623 8.85684 12.9623C7.94841 12.9623 7.11967 12.6847 6.40886 12.2478L8.58016 9.03121C8.73826 8.79304 8.97541 8.83317 9.13287 9.03121L11.3042 12.2478ZM11.6204 12.0096L9.60652 8.19762C9.44907 7.87984 9.52747 7.3239 10.0802 7.24495L13.0413 6.96664C13.239 7.44298 13.318 7.99958 13.318 8.5154C13.319 9.19112 13.1664 9.85797 12.8719 10.4639C12.5774 11.0699 12.1491 11.5987 11.6204 12.009V12.0096Z" fill="#E9E9E9"/>
<path d="M11.7774 6.01311C11.3031 5.45716 10.6713 5.0203 9.96117 4.82227C10.1977 5.17952 10 5.69533 9.80307 5.93416C9.76419 5.97363 9.80307 6.01311 9.80307 6.01311H11.7774ZM10.3558 7.80003C10.1977 7.80003 10.1977 7.87898 10.2372 7.95924L11.8163 10.9771C12.369 10.3021 12.7247 9.42839 12.7247 8.47506C12.7267 8.16657 12.6868 7.85928 12.6061 7.56186L10.3558 7.80003ZM7.82875 4.86174C7.11859 5.06043 6.48684 5.49729 6.01318 6.05258H7.98685C8.02638 6.05258 8.02638 6.01311 7.98685 5.97363C7.78988 5.69533 7.59225 5.21899 7.8294 4.86174H7.82875Z" fill="#E9E9E9"/>
<path d="M31.2798 0.415039C29.5433 1.2881 27.8055 1.7651 25.7923 1.7651C23.7791 1.7651 22.0419 1.2881 20.3041 0.415039C19.1598 2.6783 19.0017 6.33109 19.9892 9.38912C20.9365 12.3274 22.7916 15.0275 25.7923 16.6954C28.8325 15.0275 30.648 12.3267 31.596 9.38912C32.6224 6.33109 32.4254 2.6783 31.2798 0.415039ZM30.4906 9.03121C29.6223 11.5333 28.3186 13.7564 25.8318 15.3052C23.3443 13.7564 22.0024 11.5333 21.173 9.03121C20.4233 6.80742 20.2257 4.18691 21.0544 2.16248C22.3179 2.59869 23.0287 2.71777 23.7 2.83686C24.3318 2.95594 24.8845 2.99607 25.8318 2.99607C26.7396 2.99607 27.3318 2.91646 27.9636 2.83686C28.6348 2.71843 29.3852 2.59869 30.6085 2.16183C31.3984 4.18691 31.2403 6.80808 30.4906 9.03121Z" fill="#E9E9E9"/>
<path d="M27.9635 3.39138C27.2533 3.47033 26.503 3.55059 25.7928 3.55059C25.0814 3.55059 24.3712 3.47098 23.6209 3.39138C22.8903 3.26648 22.1658 3.10753 21.4496 2.91504C20.9364 4.42366 21.0155 6.32966 21.4496 7.9975C22.1999 11.1746 24.1341 13.5964 25.7922 14.6688C27.4898 13.5964 29.3851 11.1746 30.1348 7.9975C30.53 6.29019 30.648 4.42366 30.1348 2.91504C29.3851 3.11373 28.7138 3.31177 27.9641 3.39138H27.9635ZM25.3976 13.199C25.3581 13.3583 25.4365 13.4379 25.4365 13.5168C25.3976 13.6359 25.3185 13.5964 25.279 13.5168C25.2 13.3984 25.1604 13.3188 25.1604 13.1201C25.1216 12.8023 25.279 12.6832 25.3581 12.6036C25.4371 12.5247 25.5162 12.4852 25.5162 12.4852L25.555 13.001C25.4766 13.001 25.3976 13.0405 25.3976 13.1997V13.199ZM26.0689 13.7155C26.0689 13.7945 26.0294 13.8741 25.8713 13.8741C25.7527 13.8741 25.6736 13.8346 25.6736 13.676C25.6347 13.0405 25.6347 11.8891 25.6347 11.8891C25.6347 11.8891 25.7922 11.9286 25.9108 12.0075C25.9497 12.0075 26.0294 12.0878 26.1084 12.1668C26.1084 12.2062 26.1473 12.2062 26.1473 12.2464C26.1084 12.6832 26.0689 13.5168 26.0689 13.7155ZM26.5821 12.5247C26.4868 12.5961 26.3797 12.6496 26.2659 12.6826V12.2069C26.2659 12.2069 26.3054 12.1674 26.3054 12.0878C26.2665 12.0082 25.9503 11.77 25.7922 11.6904C25.5989 11.6123 25.4011 11.5459 25.2 11.4917C24.8047 11.3332 24.6473 10.9759 24.8047 10.5785C24.8449 10.42 25.0425 10.3404 25.1209 10.3009C25.2 10.2614 25.3581 10.2213 25.3581 10.2213L25.3969 10.7772C25.3969 10.7772 25.3581 10.7772 25.3185 10.8562C25.2797 10.9358 25.3574 11.0154 25.3976 11.0154C25.6736 11.1345 26.0294 11.293 26.3054 11.4523C26.6611 11.6509 26.779 11.8095 26.779 12.0878C26.8186 12.2858 26.7 12.4451 26.5821 12.524V12.5247ZM25.5952 9.94364C25.8713 9.98311 25.9503 9.98311 26.1868 10.0226L26.1479 11.1345L25.9108 11.0161L25.6736 10.8963L25.5952 9.94298V9.94364ZM27.1743 10.1818C27.1348 10.3798 27.0162 10.5391 26.8186 10.6581C26.6216 10.7766 26.3844 10.7766 26.3844 10.7766V10.1022C26.3844 10.1022 26.424 10.1022 26.4635 10.0627C26.5024 10.0232 26.5024 9.98311 26.5024 9.94364C26.5024 9.90416 26.4635 9.86403 26.424 9.82455C26.3449 9.78508 26.2659 9.78508 26.2263 9.78508L25.279 9.66534C24.7263 9.58638 24.2922 9.22847 24.3317 8.67253C24.3706 8.31528 24.727 8.19619 25.003 8.07711L25.2 8.47383C25.2395 8.63305 25.279 8.71266 25.279 8.71266C25.279 8.71266 25.1604 8.75214 25.1604 8.83109C25.1604 8.9107 25.279 8.95083 25.3185 8.95083C25.7138 8.99031 26.2659 9.06926 26.5425 9.189C26.7395 9.26795 26.8976 9.34756 27.0155 9.50677C27.1743 9.78442 27.2138 9.98311 27.1743 10.1818ZM25.3581 7.60077C25.3581 7.60077 25.4766 7.60077 25.8317 7.64025C26.0689 7.64025 26.2659 7.7192 26.2659 7.7192L26.227 8.9107C25.9503 8.87122 25.7928 8.83175 25.5557 8.79227C25.4766 8.35475 25.3581 8.19619 25.2 7.87841C25.1611 7.79946 25.2 7.75999 25.2 7.75999C25.2395 7.71985 25.3976 7.67972 25.3976 7.67972L25.3581 7.60077ZM26.424 8.79161C26.424 8.79161 26.4628 8.23567 26.4628 7.95802C26.6216 7.91855 26.6611 7.75933 26.5821 7.64025C26.5425 7.5613 26.424 7.52116 26.3844 7.52116C26.0689 7.44221 25.7922 7.44221 25.4766 7.40208C25.2 7.3626 24.9635 7.32313 24.7263 7.28299C24.2131 7.16391 23.7395 6.88561 23.5023 6.40927C23.2263 5.81385 23.4635 5.05921 24.055 4.78157C24.4892 4.54274 24.9635 4.58288 25.3976 4.78157C25.5557 4.82104 25.6341 4.9796 25.7131 5.09869C25.7527 5.13816 25.8317 5.1783 25.8713 5.2579C25.9101 5.29738 25.8324 5.29738 25.8324 5.29738C25.7527 5.33686 25.3976 5.33686 25.3185 5.29738H24.8449C24.9635 5.37633 25.1209 5.4566 25.279 5.53555C25.3581 5.57502 25.4371 5.57502 25.5162 5.61516C25.555 5.61516 25.6341 5.65463 25.6341 5.69411C25.6341 5.73424 25.5557 5.73424 25.4766 5.77372C25.3581 5.81319 25.2 5.81319 25.0425 5.77372C24.8054 5.73424 24.6868 5.57568 24.5287 5.65529C24.4108 5.73424 24.4108 5.85333 24.4496 6.01254C24.4892 6.25071 24.7263 6.32966 24.9239 6.40927C25.5946 6.64744 26.3449 6.48822 26.9767 6.84613C27.2138 6.96522 27.5294 7.24352 27.5689 7.52116C27.7665 8.63305 26.424 8.79161 26.424 8.79161ZM27.6084 5.09869C27.5689 5.21777 27.5294 5.21777 27.4503 5.29738C27.2922 5.4566 27.0551 5.61516 26.8186 5.81385C26.6611 5.93228 26.5425 6.01254 26.424 6.21058C26.3928 6.24675 26.3662 6.28676 26.3449 6.32966C25.9497 6.25071 25.5952 6.25071 25.279 6.1711V5.85333C25.279 5.85333 25.6341 5.85333 25.6743 5.61516C25.6743 5.61516 25.6743 5.53621 25.6341 5.49607C25.5762 5.45307 25.5084 5.42589 25.4371 5.41712C25.7131 5.4566 25.9898 5.57502 26.2665 5.69477C26.2665 5.65529 26.2263 5.53555 26.2263 5.53555C26.1728 5.47817 26.1046 5.43715 26.0294 5.41712C25.8713 5.37699 25.4371 5.33751 25.4371 5.33751H25.7922C25.8713 5.33751 25.9898 5.29804 25.9898 5.2579C26.0287 5.21843 25.9898 5.13882 25.9108 5.05921L25.7922 4.94013C25.7533 4.86118 25.6736 4.78157 25.6341 4.70196C25.5557 4.58288 25.2395 4.46379 25.2395 4.46379C25.2395 4.46379 25.2006 4.2651 25.279 4.18549C25.3185 4.10654 25.4766 4.10654 25.5162 4.14601C25.7132 4.2651 25.9892 4.38418 26.2659 4.46379C26.3449 4.50327 26.3449 4.50327 26.3449 4.62235C26.3844 4.82104 26.306 5.09869 26.3449 5.21777C26.3449 5.25725 26.424 5.25725 26.424 5.25725C26.7 5.09935 26.8581 4.86052 27.1348 4.74143C27.3317 4.66248 27.6875 4.82039 27.6078 5.09869H27.6084Z" fill="#E9E9E9"/>
<path d="M24.9646 4.82174C25.0436 4.90064 25.0436 4.98019 25.1621 4.98019C25.2411 4.98019 25.2806 4.94074 25.3201 4.90129H25.3991C25.2806 4.78229 25.0041 4.78229 24.8066 4.74219C24.8856 4.82174 24.9251 4.78164 24.9646 4.82174Z" fill="#E9E9E9"/>
</g>
<defs>
<clipPath id="clip0_224_94">
<rect width="85.53" height="17.106" fill="white" transform="translate(0.842285 0.254883)"/>
</clipPath>
</defs>
</svg>
