<svg width="93" height="24" viewBox="0 0 93 24" fill="none" xmlns="http://www.w3.org/2000/svg">
<g clipPath="url(#clip0_224_107)">
<path fillRule="evenodd" clipRule="evenodd" d="M74.4147 17.0562L77.1808 6.15543H80.2385C80.2385 6.15543 81.0137 6.07877 81.4123 6.40093C81.811 6.72386 81.9241 7.22182 81.9241 7.22182L83.5855 12.4972L85.7532 6.15466H88.7122C88.7122 6.15466 89.448 6.15466 89.8299 6.45978C90.2111 6.76491 90.3257 7.22182 90.3257 7.22182L92.7509 17.057H89.8778L87.7115 8.67387L85.4366 15.0644H82.3911C82.3911 15.0644 82.0243 15.1008 81.6735 14.8592C81.3227 14.6176 81.3113 14.3961 81.3113 14.3961L79.4579 8.67387L77.3304 17.057H74.4147V17.0562ZM45.9273 6.15388V8.32847L51.0587 8.68006V17.0555H54.0222V8.67929L59.1535 8.3277V6.15388H45.9273ZM37.3997 6.15388L32.0557 17.0547H35.3412L36.2751 15.0505H42.2333L43.1453 17.0547H46.4118L41.3419 6.86868C41.3419 6.86868 41.1764 6.49308 40.8894 6.32581C40.7081 6.22351 40.5063 6.16471 40.2994 6.15388H37.3997ZM39.2144 8.50814L41.1787 12.8349H37.2197L39.2144 8.50736V8.50814ZM20.7695 6.15311V17.0547H29.7923L31.0223 14.5456H23.8621V6.15388H20.7695V6.15311ZM64.051 6.15388L58.7071 17.0547H61.9918L62.9257 15.0505H68.8839L69.7958 17.0547H73.0631L67.9925 6.86868C67.9925 6.86868 67.827 6.49308 67.54 6.32581C67.2522 6.15776 66.95 6.15388 66.95 6.15388H64.051ZM65.8657 8.50814L67.8293 12.8349H63.871L65.865 8.50736L65.8657 8.50814Z" fill="#E9E9E9"/>
<path fillRule="evenodd" clipRule="evenodd" d="M2.4035 9.65622L4.77479 8.96544C4.77479 8.96544 4.74973 8.80435 4.66469 8.72536C4.59346 8.6682 4.51269 8.62465 4.42627 8.59681L1.13016 7.37554C1.13016 7.37554 1.02537 7.33914 0.948686 7.38328C0.872756 7.42588 0.875034 7.53817 0.875034 7.53817V9.10173C0.875034 9.10173 0.867441 9.2512 1.08004 9.58652C1.29265 9.92185 1.79606 9.83666 1.79606 9.83666L2.4035 9.657V9.65622ZM11.8446 5.884L14.0504 4.62401C14.0504 4.62401 14.0838 4.40562 13.9987 4.32663C13.9455 4.27776 13.8818 4.24223 13.8127 4.22285L4.28428 0.754976C4.28428 0.754976 4.1795 0.719353 4.10281 0.762721C4.02688 0.805314 4.02916 0.917606 4.02916 0.917606V2.26511C4.02916 2.26511 4.02764 2.57797 4.24024 2.9133C4.45284 3.2494 4.79757 3.33614 4.79757 3.33614L11.8438 5.884H11.8446ZM11.8446 9.80801L14.0504 8.6425C14.0504 8.6425 14.0974 8.34744 14.0124 8.26768C13.9532 8.21596 13.8856 8.17509 13.8127 8.14687L1.13016 3.44843C1.13016 3.44843 1.02537 3.4128 0.948686 3.45617C0.872756 3.49877 0.875034 3.61106 0.875034 3.61106V4.95856C0.875034 4.95856 0.873515 5.27143 1.08612 5.60675C1.29872 5.94208 1.64344 6.02959 1.64344 6.02959L11.8446 9.80878V9.80801Z" fill="#E9E9E9"/>
<path fillRule="evenodd" clipRule="evenodd" d="M13.8128 4.22245C13.8128 4.22245 13.9419 4.24259 14.0505 4.35101C14.1598 4.45943 14.1606 4.59108 14.1606 4.59108V6.37613C14.1606 6.37613 14.156 6.62008 14.0573 6.83924C13.9593 7.0584 13.8158 7.11029 13.8158 7.11029L13.5174 7.22103L3.99583 10.7485C3.99583 10.7485 3.95028 10.7633 3.88953 10.7633C3.83031 10.7633 3.78475 10.7485 3.78475 10.7485L1.13176 9.76579C1.13176 9.76579 1.06646 9.7503 0.972312 9.60084C0.867529 9.43356 0.875122 9.10133 0.875122 9.10133C0.875122 9.10133 0.891826 9.27171 0.985979 9.35302C1.08089 9.43356 1.33222 9.34528 1.33222 9.34528L13.5174 4.8296C13.5174 4.8296 14.0011 4.62825 14.0011 4.4238C14.0011 4.28286 13.8128 4.22245 13.8128 4.22245V4.22168V4.22245ZM13.8128 8.14569C13.8128 8.14569 13.9419 8.16583 14.0505 8.27425C14.1598 8.38267 14.1613 8.51432 14.1613 8.51432V10.2994C14.1613 10.2994 14.156 10.5433 14.0573 10.7625C13.9593 10.9824 13.8158 11.0335 13.8158 11.0335L13.5174 11.1443L3.99583 14.6726V12.2819L13.5174 8.75439C13.5174 8.75439 14.0011 8.55304 14.0011 8.34859C14.0011 8.20687 13.8128 8.14647 13.8128 8.14647V8.14569ZM9.08617 14.4278C9.17728 14.5208 9.17728 14.7252 9.17728 14.7252V16.0595C9.17728 16.0595 9.17197 16.3035 9.07402 16.5227C8.97531 16.7418 8.8318 16.7937 8.8318 16.7937L8.5334 16.9044L3.99583 18.5857V16.1943L8.5334 14.5138C8.5334 14.5138 8.99505 14.3349 9.08617 14.4278ZM6.15907 19.4182C6.25019 19.5112 6.25019 19.7156 6.25019 19.7156V21.0507C6.25019 21.0507 6.24487 21.2939 6.14617 21.5138C6.04822 21.733 5.90471 21.7849 5.90471 21.7849L5.60631 21.8956L3.99583 22.5214V20.1307L5.60555 19.5034C5.60555 19.5034 6.06796 19.3253 6.15907 19.4182Z" fill="#E9E9E9"/>
</g>
<defs>
<clipPath id="clip0_224_107">
<rect width="91.875" height="22.4583" fill="white" transform="translate(0.875 0.741211)"/>
</clipPath>
</defs>
</svg>
