<svg width="49" height="46" viewBox="0 0 49 46" fill="none" xmlns="http://www.w3.org/2000/svg">
<g clipPath="url(#clip0_224_88)">
<path d="M33.5505 43.6157H36.4158C36.4158 43.6157 37.6683 43.6062 37.6683 41.7426C37.6683 39.8419 36.4158 39.8381 36.4158 39.8381H33.5505V43.6157ZM15.6728 42.3442C15.3687 42.3442 15.1216 42.6122 15.1216 42.9429C15.1216 43.2736 15.3687 43.5416 15.6728 43.5416L19.0152 43.5406V42.3451H15.6728V42.3442ZM42.8695 42.3442C42.5654 42.3442 42.3183 42.6122 42.3183 42.9429C42.3183 43.2736 42.5654 43.5416 42.8695 43.5416L46.2118 43.5406V42.3451H42.8695V42.3442ZM41.7034 40.7999H46.2603C46.2603 40.3789 46.2299 39.7117 45.1893 39.7117H40.5146V37.813H46.2118C47.5993 37.813 48.696 38.349 48.696 39.9218L48.695 45.6114H41.7186L41.7985 45.6162C40.8738 45.6162 40.0974 44.8445 39.8788 43.802C39.2582 45.6114 37.7567 45.6105 36.5944 45.6076H30.978V39.4989L23.0759 45.6114H14.522L14.6009 45.6162C13.8339 45.6162 13.1678 45.084 12.8399 44.3066L12.8389 45.6114H10.3975V40.5917C10.3975 40.5917 10.3899 39.9227 9.64107 39.9218H7.83639V45.6114H5.42349V39.9218H2.88895V45.6114H0.386719L0.39147 37.813H10.581C11.7052 37.813 12.8427 38.5124 12.8427 39.9218V42.1018C13.1716 41.3263 13.8358 40.797 14.6009 40.797L14.5077 40.7989H19.0655C19.0655 40.3779 19.0351 39.7108 17.9945 39.7108H13.3198V37.812H19.0161C20.4036 37.812 21.5003 38.348 21.5003 39.9208V43.8333L29.4793 37.812H36.6153C38.0979 37.812 40.1696 37.812 40.1696 41.6989L40.1677 41.8395C40.525 41.2095 41.1218 40.7961 41.7975 40.7961L41.7044 40.798L41.7034 40.7999ZM22.3736 37.813H28.069L25.5468 39.9218H22.3727L22.3736 37.812V37.813ZM30.2386 45.6057H24.5423L27.0645 43.496H30.2396L30.2377 45.6057" fill="#E9E9E9"/>
<path fillRule="evenodd" clipRule="evenodd" d="M11.4224 28.0805C10.2364 27.3516 9.85912 26.4259 8.05824 25.6837C6.26306 23.3326 5.56646 20.4075 5.56741 17.4823C5.56741 15.346 5.93804 13.2087 6.52345 11.2938L8.33288 14.8955C8.22326 15.7559 8.17119 16.6226 8.17703 17.4899C8.17703 29.4252 16.0952 31.8333 24.4467 31.8058C32.7983 31.8333 40.7165 29.4252 40.7165 17.489C40.7216 16.3573 40.6402 15.227 40.4732 14.1077L41.7675 11.4439C43.5504 15.8801 43.2025 23.554 38.9146 26.272C38.1819 27.362 37.5167 28.1688 36.477 28.9899C32.7726 31.9132 27.408 32.2876 22.8749 32.1184C19.0669 31.9759 14.7742 31.1976 11.871 28.53L11.4224 28.0805ZM6.53105 6.58581L6.28206 6.33873C4.15046 8.92363 2.80859 12.5178 2.80859 17.488C2.80859 32.5375 15.0917 34.978 24.4467 34.978C33.8009 34.978 46.0849 32.5375 46.0849 17.488C46.0849 12.5178 44.743 8.92363 42.6105 6.33778L42.3634 6.57726C42.3178 7.89347 42.0906 9.25625 41.9006 10.543C42.8348 12.5549 43.2767 14.9459 43.3394 17.488C43.4762 24.9634 39.6768 32.8169 24.4467 33.3292C14.8721 33.2531 8.85557 30.3004 6.39705 24.1309C4.76913 23.0969 3.9737 21.1915 3.22009 19.3431C2.91598 15.4467 3.47858 11.0695 5.66815 7.74142L6.13381 7.09234C6.31152 8.36009 6.532 10.0431 6.92354 10.3653C11.7702 14.4346 20.2976 13.91 24.4002 22.1095C28.8601 13.0167 36.7327 14.1647 41.5784 10.0973L42.0298 6.19998C36.3791 12.3078 28.6985 10.236 24.4011 19.3716C19.7702 10.4024 12.196 12.6157 6.53105 6.58581ZM10.3276 8.76873C13.2338 4.27175 18.7381 3.15226 24.4467 3.17126C30.0575 3.15226 35.4725 4.23374 38.429 8.59387L41.9253 5.94624H41.9243L42.1315 5.78848C37.7438 1.01876 30.4861 0 24.4458 0C18.2791 0 10.8418 1.06247 6.48829 6.09544L6.57001 6.16196V6.16291L6.75058 6.30927C7.69141 7.22824 8.72917 8.19473 9.78309 8.74592C9.95415 8.821 10.1461 8.85046 10.3276 8.77063V8.76968V8.76873ZM41.6031 5.72576L40.0275 6.71601C35.3537 2.60486 30.3749 1.60036 24.4467 1.64123C18.4568 1.60036 13.2014 2.66664 8.58947 7.05338L6.97391 6.06313C8.63699 4.29076 10.4844 3.09999 12.7405 2.20287C17.6614 0.247087 24.6463 -0.0133047 29.8751 0.659532C34.0622 1.19837 38.4034 2.53644 41.4672 5.58226L41.6041 5.72671L41.6031 5.72576ZM24.4021 24.8788C22.4016 20.5861 20.2178 18.6484 16.8792 17.2638L8.5258 14.4479L7.3721 11.2643C9.42862 12.84 12.4535 13.9091 15.3406 15.0238C19.792 16.7249 22.2116 18.886 24.4021 23.3098V24.8778V24.8788ZM24.4021 24.8788C26.4016 20.5861 28.5864 18.3709 31.9249 16.9872L40.1862 14.0326L41.3342 10.9507C39.2777 12.5263 36.0275 13.7238 33.1394 14.8395C28.689 16.5396 26.5917 18.886 24.4021 23.3098V24.8778V24.8788ZM38.9612 11.3812C39.6378 11.0267 40.3021 10.6532 40.9151 10.1942L41.2601 9.91958L41.5832 7.12845C38.8861 9.61833 36.2109 10.5126 32.8448 11.96C32.3497 12.189 31.0326 12.7658 30.585 13.0737C29.2174 14.2389 28.5332 15.3678 28.2538 16.5615C29.9872 15.1502 31.8318 14.2474 33.8978 13.4235C35.5942 12.7468 37.3152 12.17 38.9612 11.3802V11.3812ZM28.9751 14.1182C28.6035 14.3852 27.4859 15.3327 27.2455 15.6767C26.7684 16.5748 26.5574 17.3968 26.5783 18.1913L27.5192 17.2077L27.7568 16.9929C27.8898 16.0464 28.2965 15.0989 28.9751 14.1191V14.1182ZM16.9039 12.706C15.7236 12.1301 13.9722 11.4952 12.7253 10.9868C10.187 9.88252 8.43172 8.98731 6.45312 6.99161C6.52345 7.47913 6.59567 7.96475 6.6736 8.44942C6.74583 8.84571 6.88077 9.83691 7.16778 10.1296C7.50229 10.4727 8.61513 11.1607 9.06274 11.4097C11.0603 12.5216 13.3563 13.2686 15.4604 14.122C16.827 14.7131 18.1688 15.3222 19.4261 16.1234C18.7219 14.9526 17.8315 13.8283 16.9039 12.706Z" fill="#E9E9E9"/>
</g>
<defs>
<clipPath id="clip0_224_88">
<rect width="48.467" height="45.616" fill="white" transform="translate(0.386719)"/>
</clipPath>
</defs>
</svg>
