<svg width="86" height="36" viewBox="0 0 86 36" fill="none" xmlns="http://www.w3.org/2000/svg">
<g clip-path="url(#clip0_224_91)">
<path d="M71.4027 24.1741C69.8238 24.1967 68.9832 23.1951 68.9832 21.4184C68.9832 21.2995 68.9889 21.1864 68.9946 21.0732H75.1968C75.3217 20.6035 75.4012 20.0943 75.4012 19.6246C75.4012 17.4574 74.0665 15.8051 71.3403 15.8051C68.5515 15.8051 66.0752 18.5438 66.0752 21.4184C66.0752 24.1741 67.8813 25.849 70.8916 25.849C72.2263 25.849 73.5383 25.402 74.4584 24.706L73.8848 23.2744C73.1634 23.8232 72.2831 24.1514 71.4027 24.1741ZM71.38 17.3499C72.3001 17.3499 72.7715 17.944 72.7715 19.2511C72.7715 19.3756 72.7659 19.5058 72.7488 19.6416H69.2104C69.6023 18.2665 70.4202 17.3499 71.38 17.3499ZM46.8496 15.1883C46.8496 12.9418 45.0889 11.3065 42.4194 11.3065H37.2566L33.3604 25.6H36.6205L38.0574 20.3319H40.8859C44.1233 20.3319 46.8496 18.2496 46.8496 15.1883ZM39.6307 18.657H38.5118L40.0567 12.9814H41.2324C42.7148 12.9814 43.5497 13.983 43.5497 15.3071C43.5497 17.4347 41.8742 18.657 39.6307 18.657ZM51.0923 16.0654L51.4558 14.7356C51.6375 14.0396 51.9499 12.857 52.3759 11.4876C52.8246 10.0786 53.6481 9.20152 54.7556 9.20152C55.2895 9.20152 55.619 9.44484 55.619 9.85225C55.5962 10.2993 55.2271 10.5652 55.2271 11.2839C55.2271 12.1213 55.9427 12.7721 56.8685 12.7721C58.0158 12.7721 58.9359 11.8554 58.9359 10.7293C58.9359 8.99215 57.4421 7.84912 55.1646 7.84912C51.8249 7.84912 49.6326 9.97108 48.2581 14.9336L42.6864 35.1404H45.8443L50.6606 17.6384H53.9435L51.7852 25.6H54.9431L57.5273 16.0654H51.0923Z" fill="#E9E9E9"/>
<path d="M67.0808 16.0655H58.7147L58.3057 17.6385H62.3553L56.0736 25.6002H64.9282L65.3372 24.0271H60.7821L67.0808 16.0655ZM83.6427 15.9014C82.5125 15.9014 81.3084 16.6313 80.3655 18.1422L80.9165 16.0655H77.7586L75.1743 25.6002H78.3322L79.5022 21.311C79.9737 19.5568 81.1209 17.8366 81.882 17.8366C82.6999 17.8366 82.3932 19.3701 83.8074 19.3701C84.8298 19.3701 85.4488 18.4307 85.4488 17.5706C85.4432 16.5747 84.6423 15.9014 83.6427 15.9014ZM3.91729 16.5577C6.33115 15.6694 10.4432 15.443 15.8957 16.0655L17.503 10.0108C11.2895 9.16199 4.76356 9.79009 3.24141 11.9686C2.57121 12.9476 2.39514 14.996 3.91729 16.5577ZM27.8741 15.5788C25.4602 16.4672 21.3482 16.6936 15.8957 16.0711L14.2884 22.1258C20.5019 22.9746 27.0278 22.3465 28.55 20.1679C29.2202 19.1833 29.3963 17.1349 27.8741 15.5788ZM30.021 17.7121L31.0036 14.0623C31.3614 12.7722 31.5375 12.1044 31.5375 11.5669C31.5375 6.8929 19.241 1.18905 7.52955 0.476074L5.87677 6.53075C17.9461 7.37954 30.288 13.2135 29.9699 17.7121H30.021ZM1.77038 14.4188L0.787795 18.0686C0.429976 19.3587 0.253906 20.0265 0.253906 20.564C0.253906 25.238 12.5504 30.9418 24.2618 31.6548L25.9146 25.6002C13.8397 24.7514 1.50343 18.9174 1.81581 14.4188H1.77038Z" fill="#E9E9E9"/>
</g>
<defs>
<clipPath id="clip0_224_91">
<rect width="85.53" height="35.1623" fill="white" transform="translate(0.0830078 0.227051)"/>
</clipPath>
</defs>
</svg>
