<svg width="93" height="12" viewBox="0 0 93 12" fill="none" xmlns="http://www.w3.org/2000/svg">
<g clipPath="url(#clip0_224_114)">
<path d="M77.108 0.866286H74.0557V11.0589H77.108V0.866286ZM10.8834 0.866286H0.8125V11.0589H3.98651V8.23749H10.8834C12.8363 8.23749 14.3935 6.68111 14.3935 4.78864V4.33084C14.454 2.40774 12.8513 0.866286 10.8834 0.866286ZM10.0903 5.93197H3.98651V3.17023H10.0903C10.8379 3.17023 11.4786 3.811 11.4786 4.55935C11.4786 5.30691 10.8379 5.93197 10.0903 5.93197ZM70.6077 7.6564C71.5837 7.01563 72.2253 5.99322 72.2253 4.72739V4.32927C72.2253 2.42188 70.6689 0.881205 68.7152 0.881205H58.6443V11.0746H61.8183V8.2367H67.3418L68.9594 11.0597H72.53L70.6077 7.6564ZM61.7877 5.93276V3.17023H67.8914C68.639 3.17023 69.2798 3.811 69.2798 4.55935C69.2798 5.30691 68.639 5.94768 67.8914 5.94768H61.7877V5.93197V5.93276ZM89.2543 4.66614H82.4635C82.2668 4.66059 82.0798 4.57994 81.9407 4.44077C81.8017 4.30159 81.7212 4.11445 81.7159 3.91779C81.7214 3.72128 81.802 3.53433 81.941 3.39532C82.08 3.25631 82.2669 3.17577 82.4635 3.17023H91.2685V0.866286H81.8839C81.4749 0.865458 81.0698 0.945406 80.6917 1.10154C80.3137 1.25768 79.9702 1.48693 79.681 1.77614C79.3918 2.06536 79.1626 2.40883 79.0064 2.78686C78.8503 3.16489 78.7703 3.57004 78.7712 3.97904C78.7703 4.38805 78.8503 4.79319 79.0064 5.17122C79.1626 5.54925 79.3918 5.89273 79.681 6.18194C79.9702 6.47115 80.3137 6.7004 80.6917 6.85654C81.0698 7.01268 81.4749 7.09263 81.8839 7.0918H88.674C88.8706 7.09734 89.0575 7.17788 89.1965 7.31689C89.3355 7.4559 89.4161 7.64285 89.4216 7.83936C89.4163 8.03602 89.3358 8.22316 89.1968 8.36234C89.0577 8.50152 88.8707 8.58216 88.674 8.58771H79.1222V10.9984H89.2543C89.6634 10.9993 90.0685 10.9193 90.4465 10.7632C90.8246 10.6071 91.168 10.3778 91.4572 10.0886C91.7465 9.79938 91.9757 9.4559 92.1318 9.07787C92.288 8.69984 92.3679 8.2947 92.3671 7.88569C92.3671 6.16127 90.9788 4.66614 89.2543 4.66614ZM26.8437 2.59071L25.9745 5.00145L30.4151 5.64221V3.91779C30.4151 2.25462 29.026 0.866286 27.362 0.866286H23.4404L24.2493 3.56757L26.8437 2.59071ZM25.9745 6.84758L26.8445 9.25832L24.25 8.28225L23.4412 10.9835H27.3628C29.026 10.9835 30.4151 9.59363 30.4151 7.93124V6.20603L25.9745 6.8468V6.84758ZM15.9491 3.91858V5.64221L20.3897 5.00145L19.5204 2.59071L22.1141 3.56757L22.923 0.866286H19.0014C18.5998 0.863466 18.2016 0.940491 17.83 1.09289C17.4584 1.24528 17.1208 1.47 16.8368 1.754C16.5528 2.03799 16.3281 2.37559 16.1757 2.74719C16.0233 3.11878 15.9463 3.51696 15.9491 3.91858ZM19.5197 9.25832L20.3897 6.84758L15.9491 6.20681V7.93124C15.9491 9.59441 17.3382 10.9827 19.0014 10.9827H22.923L22.1141 8.28146L19.5204 9.25832H19.5197ZM35.7713 8.69451C35.4808 8.69451 35.2523 8.46521 35.2523 8.1142V0.866286H32.2008V8.87747C32.2004 9.15808 32.2553 9.43601 32.3625 9.69533C32.4697 9.95466 32.627 10.1903 32.8254 10.3887C33.0239 10.5871 33.2595 10.7444 33.5188 10.8516C33.7781 10.9588 34.0561 11.0138 34.3367 11.0134H41.9968V8.64818H35.7713V8.69451ZM53.5024 0.866286H46.9408C44.9871 0.866286 43.4307 2.42266 43.4307 4.31513V10.9977H46.483V8.23749H53.9743V11.0605H57.0266V4.31356C57.0109 2.40853 55.4553 0.866286 53.5016 0.866286H53.5024ZM53.9594 5.93197H46.4681V4.2688C46.4681 3.68928 46.9251 3.17023 47.5659 3.17023H52.8766C53.4577 3.17023 53.9759 3.6885 53.9759 4.26959V5.93119H53.9602L53.9594 5.93197Z" fill="#E9E9E9"/>
</g>
<defs>
<clipPath id="clip0_224_114">
<rect width="91.875" height="10.2083" fill="white" transform="translate(0.8125 0.866211)"/>
</clipPath>
</defs>
</svg>
