<svg width="66" height="26" viewBox="0 0 66 26" fill="none" xmlns="http://www.w3.org/2000/svg">
<g clip-path="url(#clip0_224_105)">
<path fill-rule="evenodd" clip-rule="evenodd" d="M52.2229 8.54797C52.2229 5.46913 54.529 3.98076 57.0147 3.98076C59.5004 3.98076 61.7411 5.49465 61.7411 8.54797H52.2229ZM56.5747 0.720215C51.5093 0.720215 48.1937 4.23801 48.1937 10.0394C48.1937 17.2404 53.2652 19.3065 56.8871 19.3065C61.4757 19.3065 64.0911 16.1848 64.0911 16.1848L61.7575 13.8165C60.5192 14.9425 59.0829 15.6162 56.9443 15.6162C54.1206 15.6162 52.2178 13.9441 52.2178 11.6574H64.7985C64.7985 11.6574 66.9964 0.720215 56.5747 0.720215ZM10.8506 8.23763C9.28256 8.03346 4.73985 8.21722 4.73985 6.06632C4.73985 4.7913 6.64371 4.10632 8.39954 4.10632C11.2048 4.10632 13.0535 5.27007 13.5905 5.65799L15.9476 3.21003C15.2493 2.62407 12.6523 0.720215 8.39954 0.720215C4.52446 0.720215 1.03729 2.82517 1.03729 6.20107C1.03729 11.3808 7.05306 11.3787 9.56533 11.6339C11.0864 11.7881 12.4757 11.8973 12.4757 13.4469C12.4757 14.8884 10.3514 15.6897 8.70579 15.6897C6.0261 15.6897 4.41931 14.775 2.84825 13.3071L0.3125 15.9449C2.63898 18.2785 5.58613 19.3065 8.48938 19.3065C12.9851 19.3065 16.2722 17.2444 16.2722 13.0968C16.2722 10.3467 14.4939 8.71028 10.8506 8.23763ZM27.8107 12.4496C27.8107 15.8908 25.4424 15.706 23.3262 15.706C21.1855 15.706 19.8176 15.115 19.8176 13.5725C19.8176 12.1331 20.9313 11.6574 23.2323 11.6574H27.8107V12.4496ZM23.8529 0.720215C19.9299 0.720215 17.387 2.78842 16.9143 3.20594L19.2929 5.66819C19.7655 5.27926 21.3794 4.12674 23.8835 4.12674C26.8879 4.12674 27.7852 5.36705 27.7852 6.77069V8.51734L22.4289 8.52142C20.4484 8.52142 16.5529 9.03797 16.5529 13.5511C16.5529 16.8657 18.3894 19.3065 22.7729 19.3065C24.9728 19.3065 26.6367 18.5674 27.7852 17.1434V18.9431H31.6735V7.03713C31.6725 2.87417 29.2062 0.720215 23.8529 0.720215ZM43.8684 9.71988C43.8684 11.0653 43.8449 12.0617 43.7347 12.568C43.4897 13.6889 42.1871 15.1619 39.8239 15.1619C39.2318 15.1619 36.1999 14.8302 35.861 12.2618C35.7926 11.7473 35.7405 11.0653 35.7405 9.71988C35.7405 7.71905 35.8242 7.08409 35.9294 6.57572C36.1376 5.56815 37.4851 4.0859 39.8239 4.0859C42.6883 4.0859 43.6081 5.99486 43.7428 6.73292C43.8357 7.24334 43.8684 8.37544 43.8684 9.71988ZM43.8684 1.09078V3.0273C42.5086 1.48278 40.8876 0.720215 38.6724 0.720215C34.8891 0.720215 32.9414 2.79557 32.2819 5.00567C32.0369 5.82642 31.9522 7.39442 31.9522 9.71171C31.9522 11.8963 31.9726 13.8828 32.7485 15.41C33.8346 17.5466 36.4704 18.74 38.6713 18.74C40.8049 18.74 42.6148 17.9315 43.8674 16.5268V17.6119C43.8674 18.8859 43.4213 19.722 42.5883 20.3835C41.7532 21.047 40.7059 21.4533 39.2522 21.4533C37.9343 21.4533 36.6695 20.749 35.9498 20.26L33.2681 22.8835C35.0065 24.2617 37.086 25.2008 39.3288 25.2202C41.7063 25.2386 43.6193 24.5342 45.2955 23.2449C46.9003 22.0107 47.9119 19.6893 47.9119 17.2281V1.09078H43.8684Z" fill="#E9E9E9"/>
</g>
<defs>
<clipPath id="clip0_224_105">
<rect width="65.3333" height="24.5" fill="white" transform="translate(0.3125 0.720215)"/>
</clipPath>
</defs>
</svg>
