<svg width="60" height="59" viewBox="0 0 60 59" fill="none" xmlns="http://www.w3.org/2000/svg">
<path d="M29.3696 40.1824C28.3969 40.4786 27.3812 40.7358 26.321 40.9501C25.702 41.0752 25.0646 40.8786 24.6065 40.4438L18.8073 34.9386C18.3492 34.5038 18.1173 33.8771 18.2257 33.2549C18.4059 32.2199 18.6873 31.0836 19.0844 29.8871M29.3696 40.1824C29.2972 42.0463 29.8108 45.9665 32.2388 48.2342C32.8029 48.7611 33.6616 48.7402 34.2461 48.2362C36.7128 46.1097 40.2159 41.3261 39.9629 34.2477M29.3696 40.1824C30.2317 39.9199 31.0601 39.6267 31.8559 39.3057M39.9629 34.2477C37.7371 36.2681 35.06 38.0131 31.8559 39.3057M39.9629 34.2477C44.0301 30.5556 46.5905 25.9437 48.1066 21.4922M19.0844 29.8871C16.9962 29.9723 12.3315 29.5017 10.5124 27.0151C10.1117 26.4675 10.2396 25.7281 10.6669 25.2009C12.6007 22.8151 16.2921 19.3556 25.3345 19.4642M19.0844 29.8871C19.3304 29.1463 19.6207 28.3823 19.959 27.605M25.3345 19.4642C22.8726 22.0682 21.1291 24.9163 19.959 27.605M25.3345 19.4642C28.3663 16.2574 32.4878 13.421 37.9698 11.7088M19.959 27.605L31.8559 39.3057M37.9698 11.7088C40.9185 10.7879 44.2608 10.1922 48.039 10.0391C49.1248 9.99512 50.0186 10.8681 49.9644 11.9535C49.8268 14.7044 49.2788 18.0504 48.1066 21.4922M37.9698 11.7088L48.1066 21.4922M10.5797 41.9906L15.4708 37.1411M14.085 45.4953L18.6092 40.6458M17.3457 49L22.3591 43.906" stroke="url(#paint0_linear_626_524)" stroke-width="2" stroke-linecap="round"/>
<defs>
<linearGradient id="paint0_linear_626_524" x1="83" y1="-17.5" x2="85.5148" y2="58.2954" gradientUnits="userSpaceOnUse">
<stop stop-color="#071F42"/>
<stop offset="0.951927" stop-color="white"/>
</linearGradient>
</defs>
</svg>
