<svg width="59" height="59" viewBox="0 0 59 59" fill="none" xmlns="http://www.w3.org/2000/svg">
<path d="M48.0535 30.6471C48.0535 30.0948 47.6058 29.6471 47.0535 29.6471C46.5012 29.6471 46.0535 30.0948 46.0535 30.6471H48.0535ZM28.5267 13.2941C29.079 13.2941 29.5267 12.8464 29.5267 12.2941C29.5267 11.7418 29.079 11.2941 28.5267 11.2941V13.2941ZM38.7901 30.6471C38.7901 30.0948 38.3424 29.6471 37.7901 29.6471C37.2378 29.6471 36.7901 30.0948 36.7901 30.6471H38.7901ZM28.5267 22.4706C29.079 22.4706 29.5267 22.0229 29.5267 21.4706C29.5267 20.9183 29.079 20.4706 28.5267 20.4706V22.4706ZM37.4182 22.8766C37.8106 22.488 37.8136 21.8548 37.4249 21.4625C37.0362 21.0701 36.4031 21.0671 36.0107 21.4558L37.4182 22.8766ZM27.823 29.5667C27.4306 29.9554 27.4276 30.5886 27.8163 30.9809C28.205 31.3733 28.8381 31.3763 29.2305 30.9876L27.823 29.5667ZM49 16.4887L49.7038 17.1992C49.9736 16.9318 50.0687 16.5347 49.9492 16.1741C49.8297 15.8136 49.5162 15.5518 49.1401 15.4986L49 16.4887ZM41.631 23.7886L41.3175 24.7382C41.6746 24.8561 42.0676 24.7637 42.3348 24.499L41.631 23.7886ZM35.0808 17.2998L34.3771 16.5894C34.1061 16.8579 34.0114 17.2572 34.1331 17.6188L35.0808 17.2998ZM42.4498 10L43.4396 9.85727C43.3857 9.48345 43.1257 9.17189 42.7676 9.05185C42.4095 8.93181 42.0144 9.02377 41.746 9.28957L42.4498 10ZM36.7184 22.1664L35.7706 22.4853C35.871 22.7836 36.106 23.0173 36.4048 23.116L36.7184 22.1664ZM43.2686 15.6777L42.2788 15.8204C42.3423 16.2603 42.6884 16.6055 43.1285 16.6678L43.2686 15.6777ZM47.0535 30.6471H46.0535C46.0535 40.222 38.2154 48 28.5267 48V49V50C39.3022 50 48.0535 41.3443 48.0535 30.6471H47.0535ZM28.5267 49V48C18.8381 48 11 40.222 11 30.6471H10H9C9 41.3443 17.7513 50 28.5267 50V49ZM10 30.6471H11C11 21.0722 18.8381 13.2941 28.5267 13.2941V12.2941V11.2941C17.7513 11.2941 9 19.9499 9 30.6471H10ZM37.7901 30.6471H36.7901C36.7901 35.1539 33.0994 38.8235 28.5267 38.8235V39.8235V40.8235C34.1861 40.8235 38.7901 36.2762 38.7901 30.6471H37.7901ZM28.5267 39.8235V38.8235C23.9541 38.8235 20.2634 35.1539 20.2634 30.6471H19.2634H18.2634C18.2634 36.2762 22.8673 40.8235 28.5267 40.8235V39.8235ZM19.2634 30.6471H20.2634C20.2634 26.1402 23.9541 22.4706 28.5267 22.4706V21.4706V20.4706C22.8673 20.4706 18.2634 25.0179 18.2634 30.6471H19.2634ZM36.7145 22.1662L36.0107 21.4558L27.823 29.5667L28.5267 30.2771L29.2305 30.9876L37.4182 22.8766L36.7145 22.1662ZM49 16.4887L48.2962 15.7783L40.9273 23.0782L41.631 23.7886L42.3348 24.499L49.7038 17.1992L49 16.4887ZM35.0808 17.2998L35.7846 18.0103L43.1536 10.7104L42.4498 10L41.746 9.28957L34.3771 16.5894L35.0808 17.2998ZM41.631 23.7886L41.9446 22.839L37.0319 21.2168L36.7184 22.1664L36.4048 23.116L41.3175 24.7382L41.631 23.7886ZM36.7184 22.1664L37.6662 21.8475L36.0286 16.9809L35.0808 17.2998L34.1331 17.6188L35.7706 22.4853L36.7184 22.1664ZM42.4498 10L41.46 10.1427L42.2788 15.8204L43.2686 15.6777L44.2583 15.5349L43.4396 9.85727L42.4498 10ZM43.2686 15.6777L43.1285 16.6678L48.8599 17.4789L49 16.4887L49.1401 15.4986L43.4087 14.6875L43.2686 15.6777Z" fill="url(#paint0_linear_626_513)"/>
<defs>
<linearGradient id="paint0_linear_626_513" x1="81.175" y1="-17.5" x2="83.7542" y2="58.2911" gradientUnits="userSpaceOnUse">
<stop stop-color="#071F42"/>
<stop offset="0.951927" stop-color="white"/>
</linearGradient>
</defs>
</svg>
