<svg width="61" height="59" viewBox="0 0 61 59" fill="none" xmlns="http://www.w3.org/2000/svg">
<path d="M49 29.5C49 29.1602 48.8807 28.7923 48.6133 28.3594C48.3416 27.9197 47.9538 27.4706 47.4863 26.9727C47.0445 26.502 46.4981 25.9546 46.0391 25.4219C45.6301 24.9473 45.2267 24.4148 44.9395 23.8232L44.8232 23.5654C44.5414 22.8836 44.4401 22.1298 44.3945 21.4277C44.3501 20.7425 44.354 19.963 44.3359 19.3262C44.2955 17.9014 44.1294 16.9654 43.582 16.418C43.0346 15.8706 42.0986 15.7045 40.6738 15.6641C40.037 15.646 39.2575 15.6499 38.5723 15.6055C37.8702 15.5599 37.1164 15.4586 36.4346 15.1768L36.4326 15.1758C35.74 14.8878 35.1235 14.4278 34.582 13.9609C34.0504 13.5025 33.5021 12.9552 33.0312 12.5137C32.5331 12.0466 32.0829 11.6594 31.6426 11.3877C31.2086 11.12 30.84 11 30.5 11C30.1602 11 29.7923 11.1193 29.3594 11.3867C28.9197 11.6584 28.4706 12.0462 27.9727 12.5137C27.502 12.9555 26.9546 13.5019 26.4219 13.9609C25.9473 14.3699 25.4148 14.7733 24.8232 15.0605L24.5654 15.1768C23.884 15.4587 23.1305 15.5599 22.4287 15.6055C21.7435 15.6499 20.9641 15.646 20.3271 15.6641C18.9019 15.7045 17.9654 15.8706 17.418 16.418C16.8706 16.9654 16.7045 17.9019 16.6641 19.3271C16.646 19.9641 16.6499 20.7435 16.6055 21.4287C16.5599 22.1305 16.4587 22.884 16.1768 23.5654L16.1758 23.5674C15.8878 24.26 15.4278 24.8765 14.9609 25.418C14.5025 25.9496 13.9552 26.4979 13.5137 26.9688C13.0466 27.4669 12.6594 27.9171 12.3877 28.3574C12.12 28.7914 12 29.16 12 29.5C12 29.84 12.12 30.2086 12.3877 30.6426C12.6594 31.0829 13.0466 31.5331 13.5137 32.0312C13.9552 32.5021 14.5025 33.0504 14.9609 33.582C15.3696 34.0559 15.7732 34.5871 16.0605 35.1768L16.1758 35.4326L16.1768 35.4346L16.2744 35.6934C16.4834 36.304 16.5656 36.958 16.6055 37.5723C16.6499 38.2575 16.646 39.037 16.6641 39.6738C16.7045 41.0986 16.8706 42.0346 17.418 42.582C17.9654 43.1294 18.9019 43.2955 20.3271 43.3359C20.9641 43.354 21.7435 43.3501 22.4287 43.3945C23.0427 43.4344 23.6964 43.5166 24.3066 43.7256L24.5654 43.8232L24.5674 43.8242L24.8232 43.9395C25.4129 44.2268 25.9441 44.6304 26.418 45.0391C26.9496 45.4975 27.4979 46.0448 27.9688 46.4863C28.4669 46.9534 28.9171 47.3406 29.3574 47.6123C29.7914 47.88 30.16 48 30.5 48C30.84 48 31.2086 47.88 31.6426 47.6123C32.0829 47.3406 32.5331 46.9534 33.0312 46.4863C33.5021 46.0448 34.0504 45.4975 34.582 45.0391C35.1235 44.5722 35.74 44.1122 36.4326 43.8242L36.4346 43.8232L36.6934 43.7256C37.304 43.5166 37.958 43.4344 38.5723 43.3945C39.2575 43.3501 40.037 43.354 40.6738 43.3359C42.0986 43.2955 43.0346 43.1294 43.582 42.582C44.1294 42.0346 44.2955 41.0986 44.3359 39.6738C44.354 39.037 44.3501 38.2575 44.3945 37.5723C44.4401 36.8702 44.5414 36.1164 44.8232 35.4346L44.8242 35.4326L44.9395 35.1768C45.2268 34.5871 45.6304 34.0559 46.0391 33.582C46.4975 33.0504 47.0448 32.5021 47.4863 32.0312C47.9534 31.5331 48.3406 31.0829 48.6123 30.6426C48.88 30.2086 49 29.84 49 29.5ZM51 29.5C51 30.3319 50.7017 31.0647 50.3145 31.6924C49.9313 32.3135 49.4272 32.8855 48.9453 33.3994C48.4376 33.9408 47.978 34.3957 47.5537 34.8877C47.1387 35.3689 46.8386 35.7958 46.6709 36.1982L46.6719 36.1992C46.5151 36.5785 46.4304 37.0739 46.3896 37.7021C46.3478 38.3472 46.3572 38.9804 46.3359 39.7305C46.2976 41.0795 46.1736 42.8186 44.9961 43.9961C43.8186 45.1736 42.0795 45.2976 40.7305 45.3359C39.9804 45.3572 39.3472 45.3478 38.7021 45.3896C38.0739 45.4304 37.5785 45.5151 37.1992 45.6719C36.7966 45.8396 36.3691 46.1385 35.8877 46.5537C35.3957 46.978 34.9408 47.4376 34.3994 47.9453C33.8855 48.4272 33.3135 48.9313 32.6924 49.3145C32.0647 49.7017 31.3319 50 30.5 50C29.6681 50 28.9353 49.7017 28.3076 49.3145C27.6865 48.9313 27.1145 48.4272 26.6006 47.9453C26.0592 47.4376 25.6043 46.978 25.1123 46.5537C24.6309 46.1385 24.2034 45.8396 23.8008 45.6719L23.6533 45.6162C23.2963 45.4945 22.8486 45.4253 22.2988 45.3896C21.6538 45.3478 21.0207 45.3572 20.2705 45.3359C18.9213 45.2976 17.1815 45.1737 16.0039 43.9961C14.8264 42.8186 14.7024 41.0795 14.6641 39.7305C14.6428 38.9804 14.6522 38.3472 14.6104 37.7021C14.5696 37.0739 14.4849 36.5785 14.3281 36.1992V36.1982C14.1604 35.7959 13.8612 35.3688 13.4463 34.8877C13.022 34.3957 12.5624 33.9408 12.0547 33.3994C11.5728 32.8855 11.0687 32.3135 10.6855 31.6924C10.2983 31.0647 10 30.3319 10 29.5C10 28.6681 10.2983 27.9353 10.6855 27.3076C11.0687 26.6865 11.5728 26.1145 12.0547 25.6006C12.5624 25.0592 13.022 24.6043 13.4463 24.1123C13.862 23.6302 14.1615 23.2019 14.3291 22.7988C14.4853 22.4204 14.5697 21.9261 14.6104 21.2988C14.6522 20.6538 14.6428 20.0207 14.6641 19.2705C14.7024 17.9213 14.8263 16.1815 16.0039 15.0039C17.1815 13.8263 18.9213 13.7024 20.2705 13.6641C21.0207 13.6428 21.6538 13.6522 22.2988 13.6104C22.9271 13.5696 23.4221 13.4848 23.8008 13.3281L23.9541 13.2598C24.314 13.0844 24.6946 12.8095 25.1162 12.4463C25.608 12.0226 26.0632 11.5629 26.6035 11.0557C27.1167 10.5739 27.6881 10.0689 28.3086 9.68555C28.9357 9.29817 29.6681 9 30.5 9C31.3319 9 32.0647 9.2983 32.6924 9.68555C33.3135 10.0687 33.8855 10.5728 34.3994 11.0547C34.9408 11.5624 35.3957 12.022 35.8877 12.4463C36.3691 12.8615 36.7966 13.1604 37.1992 13.3281L37.3467 13.3838C37.7042 13.5055 38.1524 13.5747 38.7021 13.6104C39.3472 13.6522 39.9804 13.6428 40.7305 13.6641C42.0795 13.7024 43.8186 13.8264 44.9961 15.0039C46.1736 16.1814 46.2976 17.9205 46.3359 19.2695C46.3572 20.0196 46.3478 20.6528 46.3896 21.2979C46.4304 21.9261 46.5151 22.4215 46.6719 22.8008L46.7402 22.9541C46.9156 23.314 47.1905 23.6946 47.5537 24.1162C47.9774 24.608 48.4371 25.0632 48.9443 25.6035C49.4261 26.1167 49.9311 26.6881 50.3145 27.3086C50.7018 27.9357 51 28.6681 51 29.5Z" fill="url(#paint0_linear_626_519)"/>
<path d="M37.2927 24.2929C37.6833 23.9024 38.3163 23.9024 38.7068 24.2929C39.0973 24.6834 39.0973 25.3164 38.7068 25.707L28.2068 36.207C27.8407 36.5731 27.2617 36.5957 26.8689 36.2753L26.7927 36.207L22.2927 31.707L22.2244 31.6308C21.904 31.238 21.9266 30.659 22.2927 30.2929C22.6589 29.9268 23.2379 29.9042 23.6306 30.2245L23.7068 30.2929L27.4998 34.0859L37.2927 24.2929Z" fill="url(#paint1_linear_626_519)"/>
<defs>
<linearGradient id="paint0_linear_626_519" x1="84.825" y1="-19.9103" x2="87.5364" y2="59.7676" gradientUnits="userSpaceOnUse">
<stop stop-color="#071F42"/>
<stop offset="0.951927" stop-color="white"/>
</linearGradient>
<linearGradient id="paint1_linear_626_519" x1="53.0244" y1="15.1861" x2="53.6326" y2="39.4904" gradientUnits="userSpaceOnUse">
<stop stop-color="#071F42"/>
<stop offset="0.951927" stop-color="white"/>
</linearGradient>
</defs>
</svg>
