<svg width="175" height="36" viewBox="0 0 175 36" fill="none" xmlns="http://www.w3.org/2000/svg">
<g clip-path="url(#clip0_401_86)">
<path d="M16.3974 27.144C21.7057 27.144 26.0091 22.8148 26.0091 17.476C26.0091 12.1358 21.7057 7.80789 16.3974 7.80789C11.0877 7.80789 6.78564 12.1358 6.78564 17.476C6.78564 22.8148 11.0877 27.144 16.3974 27.144ZM50.9692 5.12636C46.85 5.12636 40.5487 3.17713 40.5487 3.17713C40.5487 3.17713 39.1766 6.75116 39.1766 11.6256C39.1766 16.5014 43.2148 29.3369 51.3735 32.5879C51.3735 32.5879 63.0057 25.1935 63.0057 12.2758C63.0057 4.55828 61.8749 3.17578 61.8749 3.17578C61.8749 3.17578 55.0896 5.1277 50.9692 5.1277V5.12636Z" fill="#222222"/>
<path d="M74.9624 15.1219V1.14881H80.2124C82.7181 0.984579 85.2211 2.04131 85.2211 4.80362C85.2211 6.34766 84.1711 7.40304 82.7976 7.89035C84.5741 8.29689 85.8681 9.5165 85.8681 11.5465C85.8681 14.3088 82.3946 15.3655 80.2946 15.2027H74.9624V15.1219ZM80.2946 6.75419C81.5859 6.75419 82.2329 6.26554 82.2329 5.12804C82.2329 3.99054 81.505 3.50323 80.2946 3.50323H77.952V6.83496H80.2946V6.75419ZM80.2946 12.7661C81.6668 12.7661 82.6372 12.5225 82.6372 10.8977C82.6372 9.2715 81.6668 9.02785 80.2946 9.02785H77.952V12.7661H80.2946ZM90.6329 1.14881V15.1219H87.7268V1.14881H90.6355H90.6329ZM99.4385 13.9036C98.7916 14.7975 97.9033 15.3655 96.449 15.3655C95.4811 15.3655 93.6224 14.6346 93.299 13.2521C93.1372 12.684 93.1372 12.0338 93.1372 11.7094V5.37304H96.0459V11.2221C96.0459 12.2788 96.3694 13.4971 97.7429 13.4971C98.6311 13.4971 99.4385 12.684 99.4385 11.2221V5.37304H102.346V13.3342C102.346 13.9036 102.427 14.4717 102.427 15.0411H99.5194L99.4385 13.9036ZM107.436 11.0592C107.436 12.3596 107.597 13.4957 109.132 13.4957C110.1 13.4957 110.666 13.0919 110.909 12.1967H113.494C113.252 14.6332 111.393 15.3655 109.132 15.3655C105.819 15.3655 104.446 13.4971 104.446 10.2475C104.446 7.32227 106.143 5.04727 109.131 5.04727C110.908 5.04727 112.443 5.69746 113.252 7.40304C113.494 7.97246 113.655 8.54054 113.736 9.10996C113.816 9.67804 113.816 10.3282 113.816 10.9784H107.436V11.0592ZM110.828 9.10996C110.828 8.05323 110.505 7.07727 109.131 7.07727C107.839 7.07727 107.516 8.05323 107.434 9.10996H110.828ZM123.591 5.61669C123.591 4.15342 122.703 2.93516 120.925 2.93516C118.825 2.93516 118.26 6.104 118.26 8.05323C118.26 10.0038 118.825 13.1713 120.925 13.1713C122.702 13.1713 123.59 11.953 123.59 10.4911H126.741C126.579 13.9844 124.076 15.2834 120.925 15.2834C116.887 15.2834 115.109 12.1159 115.109 7.97246C115.109 3.90977 116.886 0.660156 120.925 0.660156C124.156 0.660156 126.66 1.96054 126.741 5.45246H123.591V5.61669ZM130.941 5.37304L131.022 7.15939C131.668 5.61669 132.879 5.21016 134.334 5.29093V7.89035H133.041C132.557 7.89035 131.91 8.21612 131.669 8.62266C131.346 9.19073 131.265 9.67804 131.265 10.3282V15.1205H128.356V7.32362C128.356 6.91708 128.276 6.10535 128.276 5.37439H130.941V5.37304ZM140.635 15.4463C137.484 15.4463 135.546 13.3342 135.546 10.2475C135.546 7.15939 137.404 5.04727 140.635 5.04727C143.785 5.04727 145.723 7.16073 145.723 10.2475C145.723 13.3342 143.785 15.4463 140.635 15.4463ZM140.635 13.4971C142.412 13.4971 142.735 11.7902 142.735 10.2475C142.735 8.70343 142.412 6.99785 140.635 6.99785C138.857 6.99785 138.535 8.70343 138.535 10.2475C138.615 11.7902 138.857 13.4971 140.635 13.4971ZM152.67 7.97246C152.67 7.32227 152.025 6.99785 151.378 6.99785C150.57 6.99785 150.247 7.24016 150.247 7.89035C150.247 9.43439 155.82 8.54054 155.82 12.198C155.82 14.3088 153.236 15.3655 151.459 15.3655C149.197 15.3655 147.259 14.4717 147.178 12.2788H149.844C149.925 13.0098 150.57 13.4971 151.459 13.4971C152.266 13.4971 152.832 13.1713 152.832 12.4403C152.832 11.6286 151.459 11.3028 150.894 11.2221C149.035 10.8155 147.339 10.3282 147.339 8.13535C147.339 6.10266 149.763 5.21016 151.459 5.21016C153.478 5.21016 155.256 5.94112 155.336 8.13535H152.67V7.97246ZM162.283 7.97246C162.283 7.32227 161.636 6.99785 160.991 6.99785C160.183 6.99785 159.86 7.24016 159.86 7.89035C159.86 9.43439 165.433 8.54054 165.433 12.198C165.433 14.3088 162.848 15.3655 161.072 15.3655C158.81 15.3655 156.87 14.4717 156.791 12.2788H159.456C159.536 13.0098 160.183 13.4971 161.072 13.4971C161.879 13.4971 162.445 13.1713 162.445 12.4403C162.445 11.6286 161.072 11.3028 160.506 11.2221C158.648 10.8155 156.951 10.3282 156.951 8.13535C156.951 6.10266 159.375 5.21016 161.072 5.21016C163.091 5.21016 164.867 5.94112 164.948 8.13535H162.283V7.97246ZM74.9624 34.1336V20.1592H80.2124C82.7181 19.9977 85.2211 21.053 85.2211 23.8153C85.2211 25.358 84.1711 26.4148 82.7976 26.9021C84.5741 27.3086 85.8681 28.5269 85.8681 30.5582C85.8681 33.3205 82.3946 34.3773 80.2946 34.2144H74.9624V34.1336ZM80.2946 25.7646C81.5859 25.7646 82.2329 25.2773 82.2329 24.1398C82.2329 23.0023 81.505 22.515 80.2946 22.515H77.952V25.8467L80.2946 25.7659V25.7646ZM80.2946 31.7765C81.6668 31.7765 82.6372 31.5342 82.6372 29.908C82.6372 28.2832 81.6668 28.0396 80.2946 28.0396H77.952V31.7765H80.2946ZM90.6329 20.1592V34.1323H87.7268V20.1592H90.6355H90.6329ZM99.4385 32.914C98.7916 33.8078 97.9033 34.3773 96.449 34.3773C95.4811 34.3773 93.6224 33.645 93.299 32.183C93.1372 31.615 93.1372 30.9648 93.1372 30.639V24.3027H96.0459V30.2338C96.0459 31.2892 96.3694 32.5088 97.7429 32.5088C98.6311 32.5088 99.4385 31.6957 99.4385 30.2338V24.3834H102.346V32.3459C102.346 32.914 102.427 33.4834 102.427 34.0515H99.5194L99.4385 32.914ZM107.436 30.0709C107.436 31.3713 107.597 32.5075 109.132 32.5075C110.1 32.5075 110.666 32.1023 110.909 31.2084H113.494C113.252 33.645 111.393 34.3773 109.132 34.3773C105.819 34.3773 104.446 32.5088 104.446 29.2578C104.446 26.334 106.143 24.059 109.131 24.059C110.908 24.059 112.443 24.7092 113.252 26.4148C113.494 26.9828 113.655 27.5523 113.736 28.1203C113.816 28.6898 113.816 29.34 113.816 29.9902L107.436 30.0709ZM110.828 28.1217C110.828 27.065 110.505 26.089 109.131 26.089C107.839 26.089 107.516 27.065 107.434 28.1217H110.828ZM123.187 24.1398C123.106 22.7586 122.299 22.0277 120.844 22.0277C119.713 22.0277 118.663 22.5957 118.663 23.8153C118.663 25.358 120.037 25.5209 121.249 25.7646C123.349 26.334 126.499 26.9021 126.499 29.7465C126.499 33.2398 123.51 34.458 120.521 34.458C117.371 34.458 115.109 33.2398 115.19 29.6657H118.259C118.179 31.2084 119.068 32.2638 120.602 32.2638C121.813 32.2638 123.349 31.8586 123.349 30.3953C123.349 28.7705 121.329 28.609 120.199 28.2832C118.259 27.7959 115.594 26.9021 115.594 24.3834C115.594 21.2146 118.502 19.7527 121.409 19.7527C124.075 19.7527 126.175 21.2146 126.175 24.059L123.187 24.1398ZM128.518 34.1336V20.1592H131.426V25.603C131.991 24.7092 132.96 24.1398 134.415 24.1398C135.384 24.1398 137.243 24.8707 137.565 26.2532C137.726 26.8213 137.726 27.4715 137.726 27.7959V34.1336H134.9V28.2832C134.9 27.2278 134.576 26.089 133.203 26.089C132.315 26.089 131.506 26.9021 131.506 28.2832V34.1336H128.518ZM143.3 20.1592V22.6765H140.231V20.1592H143.3ZM143.138 24.3834V34.1336H140.231V24.3834H143.138ZM148.228 30.0709C148.228 31.3713 148.389 32.5075 149.925 32.5075C150.894 32.5075 151.459 32.1023 151.701 31.2084H154.286C154.044 33.645 152.186 34.3773 149.925 34.3773C146.612 34.3773 145.239 32.5088 145.239 29.2578C145.239 26.334 146.935 24.059 149.925 24.059C151.701 24.059 153.236 24.7092 154.044 26.4148C154.286 26.9828 154.448 27.5523 154.529 28.1203C154.609 28.6898 154.609 29.34 154.609 29.9902L148.228 30.0709ZM151.539 28.1217C151.539 27.065 151.216 26.089 149.844 26.089C148.551 26.089 148.228 27.065 148.147 28.1217H151.539ZM159.213 20.1592V34.1323H156.306V20.1592H159.213ZM168.422 20.1592H171.33V32.2638C171.33 32.914 171.411 33.5642 171.411 34.2144H168.503C168.503 33.7271 168.422 33.3205 168.422 32.8332C167.776 33.9707 166.726 34.5388 165.433 34.5388C162.606 34.5388 161.233 31.8586 161.233 29.34C161.233 26.7405 162.767 24.1398 165.757 24.1398C166.726 24.1398 167.776 24.7092 168.341 25.5209L168.422 20.1592ZM166.322 32.5088C167.857 32.5088 168.422 30.639 168.422 29.2578C168.422 27.9588 167.938 26.0082 166.322 26.0082C164.464 26.0082 164.222 27.7152 164.222 29.2578C164.222 30.7211 164.464 32.5088 166.322 32.5088ZM166.807 15.1219C166.573 15.1212 166.349 15.0271 166.182 14.8598C166.016 14.6926 165.921 14.4656 165.919 14.228C165.919 13.7407 166.322 13.3342 166.807 13.3342C167.291 13.3342 167.695 13.7407 167.695 14.228C167.695 14.7153 167.372 15.1219 166.807 15.1219ZM166.807 13.0905C166.531 13.094 166.267 13.2061 166.071 13.4033C165.876 13.6005 165.763 13.8672 165.757 14.1473C165.757 14.7153 166.241 15.2027 166.807 15.2027C167.082 15.1989 167.346 15.0868 167.542 14.89C167.737 14.6932 167.85 14.427 167.857 14.1473C167.851 13.8673 167.738 13.6008 167.542 13.4037C167.346 13.2066 167.083 13.0943 166.807 13.0905Z" fill="#222222"/>
<path d="M166.803 14.1456H166.56V13.7391H166.884C167.046 13.7391 167.206 13.7391 167.206 13.9006C167.206 14.1456 166.965 14.1456 166.803 14.1456ZM167.368 13.9019C167.368 13.6583 167.287 13.5762 166.965 13.5762H166.399V14.7958H166.56V14.2264H166.803L167.206 14.7958H167.368L167.046 14.2264C167.206 14.2264 167.368 14.1456 167.368 13.9019ZM173.022 34.0498C172.788 34.0488 172.565 33.9547 172.398 33.7878C172.232 33.621 172.137 33.3946 172.134 33.1573C172.134 32.6687 172.538 32.2635 173.022 32.2635C173.507 32.2635 173.912 32.6687 173.912 33.1573C173.908 33.3948 173.813 33.6214 173.647 33.7883C173.48 33.9552 173.256 34.0491 173.022 34.0498ZM173.022 32.0198C172.747 32.0236 172.483 32.1356 172.288 32.3325C172.092 32.5293 171.979 32.7955 171.972 33.0752C171.972 33.6446 172.457 34.1319 173.022 34.1319C173.298 34.1285 173.562 34.0164 173.758 33.8192C173.954 33.622 174.066 33.3552 174.072 33.0752C174.066 32.7954 173.953 32.529 173.757 32.3321C173.561 32.1352 173.298 32.0232 173.022 32.0198Z" fill="#222222"/>
<path d="M172.942 33.0755H172.7V32.6692H173.023C173.185 32.6692 173.345 32.6692 173.345 32.832C173.345 33.0755 173.185 33.0755 172.942 33.0755ZM173.588 32.8334C173.588 32.5885 173.507 32.5078 173.185 32.5078H172.619V33.7252H172.781V33.1576H173.023L173.345 33.7252H173.507L173.185 33.1576C173.426 33.1576 173.588 33.0768 173.588 32.832V32.8334Z" fill="#222222"/>
<path d="M16.4814 19.9938C16.4005 19.9938 16.4005 19.9938 16.3197 20.0746L13.2492 24.7875C14.2471 25.2134 15.3181 25.4344 16.4005 25.4377C17.5314 25.4377 18.5814 25.194 19.5505 24.7875L16.4814 20.076C16.561 19.9952 16.4814 19.9952 16.4814 19.9952V19.9938ZM13.4918 16.094L8.88748 15.6875C8.72271 16.2965 8.64151 16.9257 8.64619 17.5573C8.64619 19.5065 9.3727 21.2942 10.5022 22.6754L13.7344 16.5006C13.8962 16.339 13.8153 16.1762 13.4918 16.094Z" fill="#222222"/>
<path d="M23.7483 10.1671V0.986328H9.12784V10.1671H0V24.8725H9.12784V34.0533H23.7483V24.8725H32.8761V10.1671H23.7483ZM16.4792 8.46018C20.1131 8.46018 23.2644 10.5736 24.6365 13.7411H18.1761C17.2879 13.7411 16.8835 13.1731 16.8026 12.7665C16.8026 12.2792 16.8835 12.1163 17.2879 11.5483C17.4109 11.376 17.4858 11.1732 17.5044 10.9612C17.523 10.7493 17.4847 10.5361 17.3936 10.3445C17.3025 10.1529 17.162 9.98988 16.987 9.87284C16.812 9.7558 16.609 9.68909 16.3996 9.67979C15.3483 9.67979 15.0261 10.8981 15.5114 11.5483C15.9144 12.1163 15.9953 12.2792 15.9953 12.7665C15.9953 13.1731 15.5909 13.7411 14.6218 13.7411H8.15871C9.69128 10.6544 12.8439 8.46018 16.4792 8.46018ZM7.43087 17.5602C7.43087 16.4227 7.67348 15.3659 7.99697 14.3913L14.0557 14.9608C15.1865 15.1223 15.347 16.2598 15.0235 16.91L10.9044 24.7904C8.80435 23.0848 7.43087 20.484 7.43087 17.5602ZM21.4057 25.1969C19.9513 26.1715 18.2557 26.6588 16.3983 26.6588C14.5396 26.6588 12.8439 26.0908 11.3896 25.1969L15.8322 18.6156C16.1557 18.1283 16.6409 18.2104 16.9631 18.6156L21.4057 25.1969ZM22.0526 24.7096L17.9322 16.91C17.61 16.2598 17.7704 15.1223 18.9013 14.9608L24.96 14.3913C25.3644 15.3659 25.5261 16.5048 25.5261 17.5602C25.5282 18.9428 25.2159 20.3072 24.6134 21.547C24.0109 22.7869 23.1345 23.8688 22.0526 24.7083V24.7096Z" fill="#222222"/>
<path d="M22.3745 12.4365C21.404 11.299 20.1114 10.4052 18.6584 10C19.1423 10.731 18.738 11.7863 18.3349 12.275C18.2554 12.3558 18.3349 12.4365 18.3349 12.4365H22.3745ZM19.4658 16.0927C19.1423 16.0927 19.1423 16.2542 19.2232 16.4185L22.454 22.5933C23.5849 21.2121 24.3128 19.4244 24.3128 17.4738C24.3169 16.8427 24.2352 16.2139 24.0701 15.6054L19.4658 16.0927ZM14.2953 10.0808C12.8423 10.4873 11.5497 11.3812 10.5806 12.5173H14.6188C14.6997 12.5173 14.6997 12.4365 14.6188 12.3558C14.2158 11.7863 13.8114 10.8117 14.2967 10.0808H14.2953Z" fill="#222222"/>
<path d="M62.2772 0.986328C58.7242 2.77267 55.1685 3.74864 51.0493 3.74864C46.9302 3.74864 43.3759 2.77267 39.8202 0.986328C37.4789 5.6171 37.1554 13.0909 39.1759 19.3479C41.1141 25.3598 44.9098 30.8844 51.0493 34.2969C57.2698 30.8844 60.9846 25.3584 62.9242 19.3479C65.0242 13.0909 64.6211 5.6171 62.2772 0.986328ZM60.6624 18.6156C58.8859 23.735 56.2185 28.2836 51.1302 31.4525C46.0406 28.2836 43.295 23.735 41.598 18.6156C40.0641 14.0656 39.6598 8.70383 41.3554 4.56171C43.9406 5.45421 45.395 5.69787 46.7685 5.94152C48.0611 6.18517 49.192 6.26729 51.1302 6.26729C52.9876 6.26729 54.1993 6.1044 55.492 5.94152C56.8654 5.69921 58.4007 5.45421 60.9037 4.56037C62.5198 8.70383 62.1963 14.0669 60.6624 18.6156Z" fill="#222222"/>
<path d="M55.4917 7.07618C54.0387 7.23772 52.5035 7.40195 51.0504 7.40195C49.5948 7.40195 48.1417 7.23906 46.6065 7.07618C45.1117 6.82063 43.6293 6.49542 42.1639 6.10156C41.1139 9.18829 41.2756 13.0881 42.1639 16.5006C43.6991 23.0012 47.6565 27.9564 51.0491 30.1506C54.5226 27.9564 58.4004 23.0012 59.9343 16.5006C60.7431 13.0073 60.9843 9.18829 59.9343 6.10156C58.4004 6.5081 57.027 6.91329 55.4931 7.07618H55.4917ZM50.2417 27.1433C50.1609 27.4691 50.3213 27.6319 50.3213 27.7935C50.2417 28.0371 50.08 27.9564 49.9991 27.7935C49.8374 27.5512 49.7565 27.3883 49.7565 26.9818C49.677 26.3316 49.9991 26.0879 50.1609 25.925C50.3226 25.7635 50.4844 25.6827 50.4844 25.6827L50.5639 26.7381C50.4035 26.7381 50.2417 26.8189 50.2417 27.1446V27.1433ZM51.6152 28.2C51.6152 28.3616 51.5344 28.5244 51.2109 28.5244C50.9683 28.5244 50.8065 28.4437 50.8065 28.1193C50.727 26.8189 50.727 24.4631 50.727 24.4631C50.727 24.4631 51.0491 24.5439 51.2917 24.7054C51.3713 24.7054 51.5343 24.8696 51.6961 25.0312C51.6961 25.1119 51.7756 25.1119 51.7756 25.1941C51.6961 26.0879 51.6152 27.7935 51.6152 28.2ZM52.6652 25.7635C52.4703 25.9096 52.2512 26.019 52.0182 26.0866V25.1133C52.0182 25.1133 52.0991 25.0325 52.0991 24.8696C52.0196 24.7068 51.3726 24.2194 51.0491 24.0566C50.6535 23.8967 50.2489 23.7609 49.8374 23.65C49.0287 23.3256 48.7065 22.5946 49.0287 21.7816C49.1109 21.4571 49.5152 21.2943 49.6756 21.2135C49.8374 21.1327 50.1609 21.0506 50.1609 21.0506L50.2404 22.1881C50.2404 22.1881 50.1609 22.1881 50.08 22.3496C50.0004 22.5125 50.1595 22.6754 50.2417 22.6754C50.8065 22.9191 51.5343 23.2435 52.0991 23.5693C52.827 23.9758 53.0682 24.3002 53.0682 24.8696C53.1491 25.2748 52.9065 25.6006 52.6652 25.7621V25.7635ZM50.6461 20.4825C51.2109 20.5633 51.3726 20.5633 51.8565 20.6441L51.777 22.9191L51.2917 22.6768L50.8065 22.4318L50.6461 20.4812V20.4825ZM53.877 20.9698C53.7961 21.375 53.5535 21.7008 53.1491 21.9444C52.7461 22.1868 52.2609 22.1868 52.2609 22.1868V20.8069C52.2609 20.8069 52.3417 20.8069 52.4226 20.7262C52.5022 20.6454 52.5022 20.5633 52.5022 20.4825C52.5022 20.4018 52.4226 20.3196 52.3417 20.2389C52.18 20.1581 52.0182 20.1581 51.9374 20.1581L49.9991 19.9131C48.8683 19.7516 47.98 19.0193 48.0609 17.8818C48.1404 17.1508 48.8696 16.9071 49.4344 16.6635L49.8374 17.4752C49.9182 17.801 49.9991 17.9639 49.9991 17.9639C49.9991 17.9639 49.7565 18.0446 49.7565 18.2062C49.7565 18.3691 49.9991 18.4512 50.08 18.4512C50.8887 18.5319 52.0183 18.6935 52.5844 18.9385C52.9874 19.1 53.3109 19.2629 53.5522 19.5887C53.877 20.1568 53.9578 20.5633 53.877 20.9698ZM50.1609 15.6889C50.1609 15.6889 50.4035 15.6889 51.13 15.7696C51.6152 15.7696 52.0182 15.9312 52.0182 15.9312L51.9387 18.3691C51.3726 18.2883 51.0504 18.2075 50.5652 18.1268C50.4035 17.2316 50.1609 16.9071 49.8374 16.2569C49.7578 16.0954 49.8374 16.0146 49.8374 16.0146C49.9182 15.9325 50.2417 15.8504 50.2417 15.8504L50.1609 15.6889ZM52.3417 18.1254C52.3417 18.1254 52.4213 16.9879 52.4213 16.4198C52.7461 16.3391 52.827 16.0133 52.6652 15.7696C52.5844 15.6081 52.3417 15.526 52.2609 15.526C51.6152 15.3644 51.0491 15.3644 50.4035 15.2823C49.8374 15.2016 49.3535 15.1208 48.8683 15.0387C47.8183 14.795 46.8491 14.2256 46.3639 13.251C45.7991 12.0327 46.2844 10.4887 47.4948 9.9206C48.383 9.43195 49.3535 9.51406 50.2417 9.9206C50.5652 10.0014 50.7256 10.3258 50.8874 10.5694C50.9682 10.6502 51.13 10.7323 51.2109 10.8952C51.2904 10.976 51.1313 10.976 51.1313 10.976C50.9683 11.0568 50.2417 11.0568 50.08 10.976H49.1109C49.3535 11.1375 49.6756 11.3018 49.9991 11.4633C50.1609 11.5441 50.3226 11.5441 50.4844 11.6262C50.5639 11.6262 50.7256 11.7069 50.7256 11.7877C50.7256 11.8698 50.5652 11.8698 50.4035 11.9506C50.1609 12.0314 49.8374 12.0314 49.5152 11.9506C49.03 11.8698 48.7874 11.5454 48.4639 11.7083C48.2226 11.8698 48.2226 12.1135 48.3022 12.4393C48.383 12.9266 48.8683 13.0881 49.2726 13.251C50.6448 13.7383 52.18 13.4125 53.4726 14.1448C53.9578 14.3885 54.6035 14.9579 54.6843 15.526C55.0887 17.801 52.3417 18.1254 52.3417 18.1254ZM54.7652 10.5694C54.6844 10.8131 54.6035 10.8131 54.4417 10.976C54.1183 11.3018 53.633 11.6262 53.1491 12.0327C52.827 12.275 52.5843 12.4393 52.3417 12.8444C52.278 12.9184 52.2236 13.0003 52.18 13.0881C51.3713 12.9266 50.6461 12.9266 49.9991 12.7637V12.1135C49.9991 12.1135 50.7256 12.1135 50.8078 11.6262C50.8078 11.6262 50.8078 11.4646 50.7256 11.3825C50.6071 11.2945 50.4684 11.2389 50.3226 11.221C50.8874 11.3018 51.4535 11.5441 52.0196 11.7891C52.0196 11.7083 51.9374 11.4633 51.9374 11.4633C51.828 11.3459 51.6883 11.262 51.5344 11.221C51.2109 11.1389 50.3226 11.0581 50.3226 11.0581H51.0491C51.2109 11.0581 51.4535 10.9773 51.4535 10.8952C51.533 10.8144 51.4535 10.6516 51.2917 10.4887L51.0491 10.245C50.9696 10.0835 50.8065 9.9206 50.7256 9.75772C50.5652 9.51406 49.9183 9.27041 49.9183 9.27041C49.9183 9.27041 49.8387 8.86387 49.9991 8.70099C50.08 8.53945 50.4035 8.53945 50.4844 8.62022C50.8874 8.86387 51.4522 9.10752 52.0182 9.27041C52.18 9.35118 52.18 9.35118 52.18 9.59483C52.2609 10.0014 52.1004 10.5694 52.18 10.8131C52.18 10.8939 52.3417 10.8939 52.3417 10.8939C52.9065 10.5708 53.23 10.0821 53.7961 9.83849C54.1991 9.67695 54.927 10 54.7639 10.5694H54.7652Z" fill="#222222"/>
<path d="M49.356 10.0065C49.5176 10.1679 49.5176 10.3307 49.7601 10.3307C49.9217 10.3307 50.0025 10.25 50.0833 10.1693H50.2449C50.0025 9.92581 49.4368 9.92581 49.0327 9.84375C49.1943 10.0065 49.2752 9.92446 49.356 10.0065Z" fill="#222222"/>
</g>
<defs>
<clipPath id="clip0_401_86">
<rect width="175" height="35" fill="white" transform="translate(0 0.660156)"/>
</clipPath>
</defs>
</svg>
