<svg width="86" height="36" viewBox="0 0 86 36" fill="none" xmlns="http://www.w3.org/2000/svg">
<g clip-path="url(#clip0_401_68)">
<path d="M71.32 24.6082C69.741 24.6308 68.9004 23.6292 68.9004 21.8524C68.9004 21.7336 68.9061 21.6204 68.9118 21.5073H75.114C75.2389 21.0376 75.3185 20.5283 75.3185 20.0587C75.3185 17.8914 73.9837 16.2391 71.2575 16.2391C68.4688 16.2391 65.9925 18.9779 65.9925 21.8524C65.9925 24.6082 67.7986 26.2831 70.8088 26.2831C72.1435 26.2831 73.4555 25.8361 74.3756 25.1401L73.802 23.7084C73.0807 24.2573 72.2003 24.5855 71.32 24.6082ZM71.2973 17.7839C72.2174 17.7839 72.6888 18.3781 72.6888 19.6852C72.6888 19.8097 72.6831 19.9398 72.6661 20.0757H69.1276C69.5195 18.7006 70.3374 17.7839 71.2973 17.7839ZM46.7668 15.6224C46.7668 13.3759 45.0061 11.7406 42.3367 11.7406H37.1738L33.2776 26.0341H36.5377L37.9747 20.766H40.8031C44.0406 20.766 46.7668 18.6836 46.7668 15.6224ZM39.5479 19.0911H38.429L39.9739 13.4155H41.1496C42.632 13.4155 43.4669 14.4171 43.4669 15.7412C43.4669 17.8688 41.7914 19.0911 39.5479 19.0911ZM51.0095 16.4994L51.373 15.1697C51.5547 14.4737 51.8671 13.291 52.2931 11.9217C52.7418 10.5127 53.5653 9.6356 54.6729 9.6356C55.2068 9.6356 55.5362 9.87892 55.5362 10.2863C55.5135 10.7334 55.1443 10.9993 55.1443 11.718C55.1443 12.5554 55.8599 13.2062 56.7857 13.2062C57.933 13.2062 58.8531 12.2895 58.8531 11.1634C58.8531 9.42623 57.3594 8.2832 55.0818 8.2832C51.7422 8.2832 49.5498 10.4052 48.1753 15.3677L42.6036 35.5745H45.7615L50.5778 18.0725H53.8607L51.7024 26.0341H54.8603L57.4446 16.4994H51.0095Z" fill="#222222"/>
<path d="M66.9978 16.4995H58.6317L58.2227 18.0726H62.2723L55.9906 26.0342H64.8452L65.2542 24.4612H60.6991L66.9978 16.4995ZM83.5597 16.3354C82.4295 16.3354 81.2254 17.0654 80.2825 18.5762L80.8335 16.4995H77.6756L75.0913 26.0342H78.2492L79.4192 21.745C79.8906 19.9909 81.0379 18.2707 81.799 18.2707C82.6169 18.2707 82.3102 19.8041 83.7244 19.8041C84.7467 19.8041 85.3658 18.8648 85.3658 18.0047C85.3602 17.0088 84.5593 16.3354 83.5597 16.3354ZM3.83428 16.9918C6.24814 16.1034 10.3602 15.8771 15.8127 16.4995L17.42 10.4449C11.2065 9.59607 4.68055 10.2242 3.1584 12.4027C2.4882 13.3817 2.31213 15.4301 3.83428 16.9918ZM27.7911 16.0129C25.3772 16.9013 21.2652 17.1276 15.8127 16.5052L14.2053 22.5599C20.4189 23.4087 26.9448 22.7806 28.467 20.602C29.1372 19.6174 29.3132 17.569 27.7911 16.0129ZM29.938 18.1462L30.9206 14.4964C31.2784 13.2062 31.4545 12.5385 31.4545 12.001C31.4545 7.32698 19.158 1.62314 7.44655 0.910156L5.79376 6.96483C17.863 7.81362 30.205 13.6476 29.8869 18.1462H29.938ZM1.68737 14.8529L0.704787 18.5027C0.346968 19.7928 0.170898 20.4605 0.170898 20.9981C0.170898 25.6721 12.4674 31.3759 24.1788 32.0889L25.8316 26.0342C13.7566 25.1854 1.42042 19.3515 1.73281 14.8529H1.68737Z" fill="#222222"/>
</g>
<defs>
<clipPath id="clip0_401_68">
<rect width="85.53" height="35.1623" fill="white" transform="translate(0 0.660156)"/>
</clipPath>
</defs>
</svg>
