<svg width="26" height="26" viewBox="0 0 26 26" fill="none" xmlns="http://www.w3.org/2000/svg">
<path fillRule="evenodd" clipRule="evenodd" d="M26 13C26 20.1797 20.1797 26 13 26C5.8203 26 0 20.1797 0 13C0 5.8203 5.8203 0 13 0C20.1797 0 26 5.8203 26 13ZM15.3716 9.47933L8.09214 16.7588C7.77484 17.0761 7.77484 17.5906 8.09214 17.9079C8.40944 18.2252 8.92389 18.2252 9.24119 17.9079L16.521 10.6281V15.7085C16.521 16.1572 16.8848 16.521 17.3335 16.521C17.7822 16.521 18.146 16.1572 18.146 15.7085V8.66683C18.146 8.52972 18.112 8.40055 18.0521 8.28726C18.0461 8.276 18.0399 8.26485 18.0334 8.25381C17.9993 8.19611 17.9574 8.14172 17.9079 8.09214C17.7451 7.92934 17.5304 7.85007 17.317 7.85433H10.2918C9.8431 7.85433 9.47933 8.2181 9.47933 8.66683C9.47933 9.11556 9.8431 9.47933 10.2918 9.47933H15.3716Z" fill="#EAEAEA"/>
</svg>
