<svg width="163" height="134" viewBox="0 0 163 134" fill="none" xmlns="http://www.w3.org/2000/svg">
<path d="M34.6375 64.385C57.4575 64.385 73.35 77.0175 73.35 99.0225C73.35 121.028 57.4575 133.66 37.0825 133.66C12.225 133.66 0 114.915 0 84.76C0 37.49 26.08 5.705 69.275 0V28.525C48.9 31.3775 34.6375 47.6775 34.6375 64.385ZM124.288 64.385C147.108 64.385 163 77.0175 163 99.0225C163 121.028 147.108 133.66 126.733 133.66C101.875 133.66 89.65 114.915 89.65 84.76C89.65 37.49 115.73 5.705 158.925 0V28.525C138.55 31.3775 124.288 47.6775 124.288 64.385Z" fill="white"/>
</svg>
