<svg width="164" height="65" viewBox="0 0 164 65" fill="none" xmlns="http://www.w3.org/2000/svg">
<path d="M47.0591 15.375H54.0392C51.6492 16.485 50.0191 18.795 50.2491 21.395C50.5791 25.195 54.0491 26.675 54.0491 31.155C54.0491 34.145 52.1091 36.765 49.9691 37.895L43.6191 36.145C45.8191 35.115 47.2691 32.995 47.1791 30.675C47.0291 27.065 43.6191 25.415 43.6191 21.325C43.6191 18.555 45.1592 16.335 47.0692 15.375" fill="#E1E1E1"/>
<path d="M61.9902 34.215V20.185H57.7402V15.375H71.8902V20.185H67.5902V34.215H61.9902Z" fill="#E1E1E1"/>
<path d="M0.019989 24.8251C0.029989 30.2551 4.45001 34.6451 9.88 34.6351C12.46 34.6351 14.93 33.6051 16.76 31.7951L12.95 27.9851C11.2 29.7051 8.39999 29.6751 6.67999 27.9351C4.95999 26.1851 4.99001 23.3851 6.73001 21.6651C8.46001 19.9651 11.22 19.9651 12.95 21.6651L16.76 17.8451C12.9 14.0251 6.67001 14.0551 2.85001 17.9151C1.03001 19.7551 0.01 22.2351 0 24.8151" fill="#E1E1E1"/>
<path d="M29.2401 29.2656C26.7901 29.2656 24.8101 27.2756 24.8101 24.8256C24.8101 22.3756 26.8001 20.3956 29.2501 20.3956C31.7001 20.3956 33.6801 22.3856 33.6801 24.8356C33.6801 27.2856 31.6901 29.2656 29.2401 29.2756M29.4001 15.0156C23.9701 15.0156 19.5801 19.4256 19.5801 24.8456C19.5801 30.2756 23.9901 34.6656 29.4101 34.6656C34.8401 34.6656 39.2301 30.2556 39.2301 24.8356C39.2301 19.4156 34.8401 15.0156 29.4101 15.0156C29.4101 15.0156 29.4001 15.0156 29.3901 15.0156" fill="#E1E1E1"/>
<path d="M81.3809 26.835L83.0909 19.615H83.3908L85.1108 26.835H81.3809ZM86.6609 15.375H79.8509L73.8809 34.215H79.6309L80.4008 30.975H86.0909L86.8608 34.215H92.6309L86.6508 15.375H86.6609Z" fill="#E1E1E1"/>
<path d="M40.6211 42.5742H46.3611V44.0842H42.3811V45.5642H45.6811V47.0742H42.3811V50.1042H40.6211V42.5742Z" fill="#E1E1E1"/>
<path d="M48.75 42.5742H54.49V44.0842H50.51V45.5642H53.81V47.0742H50.51V50.1042H48.75V42.5742Z" fill="#E1E1E1"/>
<path d="M27.5003 47.5653C26.8303 48.6153 25.4503 48.9253 24.4003 48.2553C23.3503 47.5853 23.0403 46.2053 23.7103 45.1553C24.3803 44.1053 25.7603 43.7953 26.8103 44.4653C27.0103 44.5853 27.1803 44.7453 27.3303 44.9253L28.4804 43.7753C27.0504 42.1653 24.5904 42.0253 22.9804 43.4553C21.3704 44.8853 21.2303 47.3453 22.6603 48.9553C24.0903 50.5653 26.5503 50.7053 28.1603 49.2753C28.3403 49.1153 28.5103 48.9353 28.6503 48.7453L27.4903 47.5653H27.5003Z" fill="#E1E1E1"/>
<path d="M58.6604 48.5942V47.0742H61.9604V45.5642H58.6604V44.0842H62.5404V42.5742H56.9004V50.1042H62.6904V48.5942H58.6604Z" fill="#E1E1E1"/>
<path d="M70.9386 44.0842V42.5742H65.3086V50.1042H71.0986V48.5942H67.0686V47.0742H70.3586V45.5642H67.0686V44.0842H70.9386Z" fill="#E1E1E1"/>
<path d="M34.3001 48.577C33.0601 48.577 32.0602 47.577 32.0602 46.337C32.0602 45.097 33.0601 44.097 34.3001 44.097C35.5301 44.097 36.5402 45.097 36.5402 46.337C36.5402 47.577 35.5401 48.577 34.3001 48.577ZM34.3001 42.457C32.1501 42.457 30.4102 44.197 30.4102 46.347C30.4102 48.497 32.1501 50.237 34.3001 50.237C36.4501 50.237 38.1902 48.497 38.1902 46.347C38.1902 44.197 36.4501 42.457 34.3001 42.457Z" fill="#E1E1E1"/>
</svg>
