<svg width="164" height="65" viewBox="0 0 164 65" fill="none" xmlns="http://www.w3.org/2000/svg">
<path d="M83.0591 15.375H90.0392C87.6492 16.485 86.0191 18.795 86.2491 21.395C86.5791 25.195 90.0491 26.675 90.0491 31.155C90.0491 34.145 88.1091 36.765 85.9691 37.895L79.6191 36.145C81.8191 35.115 83.2691 32.995 83.1791 30.675C83.0291 27.065 79.6191 25.415 79.6191 21.325C79.6191 18.555 81.1592 16.335 83.0692 15.375" fill="#E1E1E1"/>
<path d="M97.9902 34.215V20.185H93.7402V15.375H107.89V20.185H103.59V34.215H97.9902Z" fill="#E1E1E1"/>
<path d="M36.02 24.8251C36.03 30.2551 40.45 34.6451 45.88 34.6351C48.46 34.6351 50.93 33.6051 52.76 31.7951L48.95 27.9851C47.2 29.7051 44.4 29.6751 42.68 27.9351C40.96 26.1851 40.99 23.3851 42.73 21.6651C44.46 19.9651 47.22 19.9651 48.95 21.6651L52.76 17.8451C48.9 14.0251 42.67 14.0551 38.85 17.9151C37.03 19.7551 36.01 22.2351 36 24.8151" fill="#E1E1E1"/>
<path d="M65.2401 29.2656C62.7901 29.2656 60.8101 27.2756 60.8101 24.8256C60.8101 22.3756 62.8001 20.3956 65.2501 20.3956C67.7001 20.3956 69.6801 22.3856 69.6801 24.8356C69.6801 27.2856 67.6901 29.2656 65.2401 29.2756M65.4001 15.0156C59.9701 15.0156 55.5801 19.4256 55.5801 24.8456C55.5801 30.2756 59.9901 34.6656 65.4101 34.6656C70.8401 34.6656 75.2301 30.2556 75.2301 24.8356C75.2301 19.4156 70.8401 15.0156 65.4101 15.0156C65.4101 15.0156 65.4001 15.0156 65.3901 15.0156" fill="#E1E1E1"/>
<path d="M117.381 26.835L119.091 19.615H119.391L121.111 26.835H117.381ZM122.661 15.375H115.851L109.881 34.215H115.631L116.401 30.975H122.091L122.861 34.215H128.631L122.651 15.375H122.661Z" fill="#E1E1E1"/>
<path d="M76.6211 42.5742H82.3611V44.0842H78.3811V45.5642H81.6811V47.0742H78.3811V50.1042H76.6211V42.5742Z" fill="#E1E1E1"/>
<path d="M84.75 42.5742H90.49V44.0842H86.51V45.5642H89.81V47.0742H86.51V50.1042H84.75V42.5742Z" fill="#E1E1E1"/>
<path d="M63.5003 47.5653C62.8303 48.6153 61.4503 48.9253 60.4003 48.2553C59.3503 47.5853 59.0403 46.2053 59.7103 45.1553C60.3803 44.1053 61.7603 43.7953 62.8103 44.4653C63.0103 44.5853 63.1803 44.7453 63.3303 44.9253L64.4804 43.7753C63.0504 42.1653 60.5904 42.0253 58.9804 43.4553C57.3704 44.8853 57.2303 47.3453 58.6603 48.9553C60.0903 50.5653 62.5503 50.7053 64.1603 49.2753C64.3403 49.1153 64.5103 48.9353 64.6503 48.7453L63.4903 47.5653H63.5003Z" fill="#E1E1E1"/>
<path d="M94.6604 48.5942V47.0742H97.9604V45.5642H94.6604V44.0842H98.5404V42.5742H92.9004V50.1042H98.6904V48.5942H94.6604Z" fill="#E1E1E1"/>
<path d="M106.939 44.0842V42.5742H101.309V50.1042H107.099V48.5942H103.069V47.0742H106.359V45.5642H103.069V44.0842H106.939Z" fill="#E1E1E1"/>
<path d="M70.3001 48.577C69.0601 48.577 68.0602 47.577 68.0602 46.337C68.0602 45.097 69.0601 44.097 70.3001 44.097C71.5301 44.097 72.5402 45.097 72.5402 46.337C72.5402 47.577 71.5401 48.577 70.3001 48.577ZM70.3001 42.457C68.1501 42.457 66.4102 44.197 66.4102 46.347C66.4102 48.497 68.1501 50.237 70.3001 50.237C72.4501 50.237 74.1902 48.497 74.1902 46.347C74.1902 44.197 72.4501 42.457 70.3001 42.457Z" fill="#E1E1E1"/>
</svg>
