<svg width="164" height="65" viewBox="0 0 164 65" fill="none" xmlns="http://www.w3.org/2000/svg">
<path d="M53.0564 15V33.8346C53.0564 36.2876 51.4493 37.7444 48.8553 37.7444C46.2613 37.7444 44.8797 35.8271 44.8797 33.7594V30.3853H38V33.8346C38 37.359 39.0714 43.6372 48.921 43.6372C58.7707 43.6372 60.1523 36.8985 60.1523 33.6842V15H53.047H53.0564ZM71.1579 22.8101C64.6635 22.8101 61.7594 28.7876 61.7594 33.9192C61.7594 39.0508 65.0489 44.032 71.7688 44.032C77.6522 44.1071 81.5526 40.282 81.5526 37.4436H75.0583C75.0583 37.4436 74.297 39.2857 72.0038 39.2857C69.7105 39.2857 68.4135 37.9887 68.4135 34.8496H81.6278C81.6278 24.9718 76.7406 22.8289 71.1579 22.8289V22.8101ZM92.3985 22.8101C85.9041 22.8101 83 28.7876 83 33.9192C83 39.0508 86.2895 44.032 93.0094 44.032C98.8929 44.1071 102.784 40.282 102.784 37.4436H96.2895C96.2895 37.4436 95.5282 39.2857 93.235 39.2857C90.9417 39.2857 89.6447 37.9887 89.6447 34.8496H102.859C102.859 24.9718 97.9718 22.8289 92.3891 22.8289L92.3985 22.8101ZM116.994 23.0451C113.705 23.0451 112.474 24.5771 112.032 25.1128C111.524 25.7331 111.355 26.0808 111.12 26.5883V23.5808H104.551V50H111.195V41.8045C111.468 42.1711 111.628 42.3496 112.117 42.7256C112.878 43.3177 114.175 44.3327 117.079 44.3327C122.352 44.3327 125.406 39.7368 125.406 33.4586C125.406 25.3383 120.284 23.0451 117.004 23.0451H116.994ZM71.6184 27.0959C74.062 27.0959 75.1335 28.938 75.1335 30.8459H68.4135C68.4135 28.7782 69.2594 27.0959 71.6184 27.0959ZM92.859 27.0959C95.3026 27.0959 96.3741 28.938 96.3741 30.8459H89.6542C89.6542 28.7782 90.4906 27.0959 92.859 27.0959ZM114.701 28.1767C118.066 28.1767 118.677 30.7801 118.677 33.4586C118.677 36.1372 118.216 39.6617 115.011 39.6617C111.806 39.6617 110.961 37.594 111.036 33.6842C111.111 29.7744 112.643 28.1673 114.701 28.1673V28.1767Z" fill="#E1E1E1"/>
</svg>
