<svg width="164" height="65" viewBox="0 0 164 65" fill="none" xmlns="http://www.w3.org/2000/svg">
<path d="M15.0564 15V33.8346C15.0564 36.2876 13.4493 37.7444 10.8553 37.7444C8.2613 37.7444 6.87971 35.8271 6.87971 33.7594V30.3853H0V33.8346C0 37.359 1.07142 43.6372 10.921 43.6372C20.7707 43.6372 22.1523 36.8985 22.1523 33.6842V15H15.047H15.0564ZM33.1579 22.8101C26.6635 22.8101 23.7594 28.7876 23.7594 33.9192C23.7594 39.0508 27.0489 44.032 33.7688 44.032C39.6522 44.1071 43.5526 40.282 43.5526 37.4436H37.0583C37.0583 37.4436 36.297 39.2857 34.0038 39.2857C31.7105 39.2857 30.4135 37.9887 30.4135 34.8496H43.6278C43.6278 24.9718 38.7406 22.8289 33.1579 22.8289V22.8101ZM54.3985 22.8101C47.9041 22.8101 45 28.7876 45 33.9192C45 39.0508 48.2895 44.032 55.0094 44.032C60.8929 44.1071 64.7838 40.282 64.7838 37.4436H58.2895C58.2895 37.4436 57.5282 39.2857 55.235 39.2857C52.9417 39.2857 51.6447 37.9887 51.6447 34.8496H64.859C64.859 24.9718 59.9718 22.8289 54.3891 22.8289L54.3985 22.8101ZM78.9944 23.0451C75.7049 23.0451 74.4737 24.5771 74.032 25.1128C73.5245 25.7331 73.3553 26.0808 73.1203 26.5883V23.5808H66.5508V50H73.1955V41.8045C73.468 42.1711 73.6278 42.3496 74.1166 42.7256C74.8778 43.3177 76.1748 44.3327 79.079 44.3327C84.3515 44.3327 87.406 39.7368 87.406 33.4586C87.406 25.3383 82.2838 23.0451 79.0038 23.0451H78.9944ZM33.6184 27.0959C36.062 27.0959 37.1335 28.938 37.1335 30.8459H30.4135C30.4135 28.7782 31.2594 27.0959 33.6184 27.0959ZM54.859 27.0959C57.3026 27.0959 58.3741 28.938 58.3741 30.8459H51.6542C51.6542 28.7782 52.4906 27.0959 54.859 27.0959ZM76.7011 28.1767C80.0658 28.1767 80.6767 30.7801 80.6767 33.4586C80.6767 36.1372 80.2162 39.6617 77.0113 39.6617C73.8064 39.6617 72.9605 37.594 73.0357 33.6842C73.1109 29.7744 74.6429 28.1673 76.7011 28.1673V28.1767Z" fill="#E1E1E1"/>
</svg>
