<svg width="164" height="65" viewBox="0 0 164 65" fill="none" xmlns="http://www.w3.org/2000/svg">
<path d="M25.548 15.0469V22.8996H7.91823C7.65489 22.8996 7.18222 23.46 7.17547 23.7436C7.27675 24.9793 7.04043 26.4242 7.18223 27.6396C7.24975 28.227 7.60764 28.6727 8.22884 28.6997C11.4631 28.8482 14.8797 28.4971 18.0869 28.6997C21.463 28.909 24.5555 31.8664 25.386 35.0534C25.8384 36.7887 25.8316 39.7799 25.7101 41.603C25.4467 45.5192 22.5703 49.5097 18.4988 49.9959H0.146521V42.1972H17.729C18.2355 42.1972 18.5393 41.468 18.5731 41.0426C18.6541 40.1783 18.6676 38.1999 18.5731 37.3559C18.5123 36.8765 18.168 36.5389 17.6818 36.4984C14.5083 36.3904 11.2403 36.6469 8.08027 36.4984C4.46113 36.3296 1.3349 33.9191 0.42336 30.4012C-0.143818 28.2068 -0.0155354 25.0535 0.0992508 22.7713C0.322071 18.4364 3.49559 15.5938 7.6684 15.0469H25.5615H25.548Z" fill="#E1E1E1"/>
<path d="M26.0621 17.788C27.8514 16.5456 29.9581 15.6543 32.112 15.2627C39.8973 13.8447 47.149 18.3011 50.1605 25.4044C52.1794 30.1646 52.0848 35.6676 49.9309 40.3603L53.6243 44.5129L48.2091 50.0767L39.8162 41.022L39.6879 40.7925C42.1052 39.253 43.6852 36.5319 43.9755 33.6892C44.5899 27.7339 39.7892 22.1634 33.5975 23.1627C28.6954 23.9527 25.5152 28.8209 26.0081 33.6352C26.582 39.2395 31.7204 43.392 37.3517 41.8931L42.9965 48.051C37.2909 51.5351 29.7218 50.7384 24.6712 46.4575C25.5152 45.0666 26.1161 43.5406 26.2107 41.8931C26.3052 40.2456 26.366 37.1058 26.0351 35.5056C25.2721 31.8864 22.5713 28.9357 18.8711 28.274C19.2965 26.586 19.9514 24.9857 20.7684 23.453H26.0554V17.7812L26.0621 17.788Z" fill="#E1E1E1"/>
</svg>
