<svg width="164" height="65" viewBox="0 0 164 65" fill="none" xmlns="http://www.w3.org/2000/svg">
<path d="M80.548 15.0469V22.8996H62.9182C62.6549 22.8996 62.1822 23.46 62.1755 23.7436C62.2768 24.9793 62.0404 26.4242 62.1822 27.6396C62.2497 28.227 62.6076 28.6727 63.2288 28.6997C66.4631 28.8482 69.8797 28.4971 73.0869 28.6997C76.463 28.909 79.5555 31.8664 80.386 35.0534C80.8384 36.7887 80.8316 39.7799 80.7101 41.603C80.4467 45.5192 77.5703 49.5097 73.4988 49.9959H55.1465V42.1972H72.729C73.2355 42.1972 73.5393 41.468 73.5731 41.0426C73.6541 40.1783 73.6676 38.1999 73.5731 37.3559C73.5123 36.8765 73.168 36.5389 72.6818 36.4984C69.5083 36.3904 66.2403 36.6469 63.0803 36.4984C59.4611 36.3296 56.3349 33.9191 55.4234 30.4012C54.8562 28.2068 54.9845 25.0535 55.0993 22.7713C55.3221 18.4364 58.4956 15.5938 62.6684 15.0469H80.5615H80.548Z" fill="#E1E1E1"/>
<path d="M81.0621 17.788C82.8514 16.5456 84.9581 15.6543 87.112 15.2627C94.8973 13.8447 102.149 18.3011 105.16 25.4044C107.179 30.1646 107.085 35.6676 104.931 40.3603L108.624 44.5129L103.209 50.0767L94.8162 41.022L94.6879 40.7925C97.1052 39.253 98.6852 36.5319 98.9755 33.6892C99.5899 27.7339 94.7892 22.1634 88.5975 23.1627C83.6954 23.9527 80.5152 28.8209 81.0081 33.6352C81.582 39.2395 86.7204 43.392 92.3517 41.8931L97.9965 48.051C92.2909 51.5351 84.7218 50.7384 79.6712 46.4575C80.5152 45.0666 81.1161 43.5406 81.2107 41.8931C81.3052 40.2456 81.366 37.1058 81.0351 35.5056C80.2721 31.8864 77.5713 28.9357 73.8711 28.274C74.2965 26.586 74.9514 24.9857 75.7684 23.453H81.0554V17.7812L81.0621 17.788Z" fill="#E1E1E1"/>
</svg>
